<svg width="247" height="112" viewBox="0 0 247 112" fill="none" xmlns="http://www.w3.org/2000/svg">
<g clip-path="url(#clip0_245_5317)">
<path fill-rule="evenodd" clip-rule="evenodd" d="M30.6069 5.13632C48.4383 -1.82876 62.3255 -0.649097 75.2928 2.47221C78.1763 3.16646 83.932 5.1081 83.932 5.1081C83.932 5.1081 74.2037 5.36209 68.8035 7.1852C63.3976 9.00832 61.6935 9.41471 59.3686 10.6734C45.2614 18.3101 34.1957 27.8264 31.916 41.1075C19.3719 43.3201 15.0156 48.9757 7.84348 54.7329L7.79834 54.5918C9.22034 39.6174 16.8382 26.7766 25.6468 17.249C27.9998 14.7486 30.9229 12.7618 33.5581 11.108C36.6109 9.19458 39.5282 7.67626 39.5282 7.67626C39.5282 7.67626 33.18 7.47871 28.5698 8.50597C23.9595 9.53324 22.972 9.75336 20.1788 10.3742L20.461 10.2783C20.461 10.2783 24.4674 7.57466 30.6012 5.13068L30.6069 5.13632Z" fill="url(#paint0_linear_245_5317)"/>
<path fill-rule="evenodd" clip-rule="evenodd" d="M3.34623 45.5721C10.366 29.5592 20.0886 21.3524 30.4772 14.9969C32.7851 13.5858 37.7565 11.1193 37.7565 11.1193C37.7565 11.1193 31.6396 17.5651 29.326 22.2273C27.0125 26.8951 26.1717 28.2554 25.4832 30.5695C21.3075 44.6069 20.3031 57.8993 27.4075 67.9462C20.7376 77.4737 21.5727 83.9421 20.6642 92.2901L20.5401 92.228C11.7936 81.6449 8.42481 68.4316 7.9621 56.5898C7.86617 53.4572 8.46996 50.2795 9.1076 47.5194C9.84118 44.3134 10.7497 41.4518 10.7497 41.4518C10.7497 41.4518 6.52317 45.4254 4.20959 49.0659C1.89601 52.7065 1.39943 53.4854 0 55.6924L0.124143 55.4497C0.124143 55.4497 0.964932 51.1148 3.34623 45.5778V45.5721Z" fill="url(#paint1_linear_245_5317)"/>
<path fill-rule="evenodd" clip-rule="evenodd" d="M15.3205 89.0503C9.53089 74.2114 10.5071 62.6575 13.1085 51.8712C13.684 49.4724 15.3035 44.6804 15.3035 44.6804C15.3035 44.6804 15.5123 52.7743 17.0303 57.2672C18.5426 61.7657 18.8811 63.1824 19.9307 65.1184C26.2846 76.8529 34.1959 86.0644 45.239 87.9553C47.0786 98.3916 51.7791 102.015 56.5699 107.981L56.4514 108.021C44.0032 106.835 33.3212 100.497 25.3987 93.1706C23.3221 91.212 21.6631 88.7793 20.2919 86.5894C18.7006 84.0494 17.4366 81.6224 17.4366 81.6224C17.4366 81.6224 17.2729 86.8998 18.1306 90.7379C18.9827 94.576 19.1689 95.3945 19.6881 97.7199L19.6091 97.4829C19.6091 97.4829 17.3632 94.1527 15.3261 89.0446L15.3205 89.0503Z" fill="url(#paint2_linear_245_5317)"/>
<path fill-rule="evenodd" clip-rule="evenodd" d="M55.8249 109.279C42.8294 103.579 36.1708 95.688 31.0132 87.2554C29.8677 85.3814 27.8701 81.3458 27.8701 81.3458C27.8701 81.3458 33.1011 86.3128 36.8874 88.1867C40.6738 90.0662 41.7798 90.7435 43.6589 91.3023C55.0519 94.6946 65.8354 95.5073 73.9837 89.7445C81.7145 95.1574 86.9623 94.4801 93.7338 95.2195L93.683 95.3211C85.0945 102.422 74.3731 105.159 64.7689 105.532C62.2296 105.611 59.6508 105.12 57.4106 104.606C54.8092 104.008 52.4844 103.274 52.4844 103.274C52.4844 103.274 55.7064 106.706 58.6633 108.58C61.6202 110.459 62.2465 110.86 64.041 112L63.8435 111.898C63.8435 111.898 60.328 111.215 55.8306 109.279H55.8249Z" fill="url(#paint3_linear_245_5317)"/>
<path d="M73.38 30.2365C72.7142 30.2873 72.0653 30.3212 71.4558 30.3438C70.948 30.3607 70.7053 29.943 70.7053 29.5197C70.7053 29.0964 70.931 28.6956 71.422 28.6956C71.6872 28.6956 71.9637 28.6787 72.2458 28.6618C72.6126 28.1538 72.9625 27.6119 73.2954 27.0701C72.6803 26.3194 71.9806 25.563 71.3204 24.9196C71.1455 24.7446 71.0777 24.5527 71.0777 24.3777C71.0777 23.9431 71.4615 23.5537 71.9016 23.5537C72.0935 23.5537 72.3023 23.6214 72.4772 23.7964C72.827 23.1303 73.16 22.3797 73.459 21.6628C73.6001 21.2959 73.933 21.121 74.266 21.121C74.7005 21.121 75.1576 21.4201 75.1576 21.8717C75.1576 21.9789 75.1237 22.0805 75.0898 22.1877C74.7231 23.0965 74.2152 24.0955 73.6565 25.0043C73.8315 25.1962 74.0064 25.405 74.1813 25.6195C74.4973 25.0438 74.7908 24.4793 75.039 23.9939C75.197 23.6778 75.4566 23.5367 75.7388 23.5367C76.1958 23.5367 76.6473 23.8698 76.6473 24.3269C76.6473 24.4511 76.6134 24.5696 76.5401 24.7108C75.9081 25.9017 74.9995 27.3862 74.1588 28.5602C74.6328 28.5263 75.1011 28.4924 75.5751 28.436C75.4905 28.278 75.4002 28.1199 75.3156 27.9788C75.2478 27.8716 75.2309 27.753 75.2309 27.6458C75.2309 27.2958 75.5808 26.9967 75.9814 26.9967C76.2071 26.9967 76.4554 27.1039 76.6303 27.3636C77.031 27.9732 77.4711 28.8706 77.7476 29.6213C77.7815 29.7285 77.7984 29.8132 77.7984 29.9035C77.7984 30.3607 77.3808 30.6373 76.9746 30.6373C76.6755 30.6373 76.399 30.4962 76.2918 30.1632C76.2579 30.0785 76.241 29.9882 76.2071 29.9204C75.8573 29.9712 75.4905 30.0051 75.1406 30.0616V36.6936C75.1406 37.1508 74.7005 37.3766 74.266 37.3766C73.8315 37.3766 73.3913 37.1508 73.3913 36.6936V30.2365H73.38ZM72.3474 31.1791C72.7142 31.1791 73.081 31.388 73.081 31.8282V31.9129C72.9568 33.1208 72.6634 34.3625 72.3305 35.1697C72.1894 35.5196 71.8903 35.6776 71.5969 35.6776C71.2132 35.6776 70.8295 35.4124 70.8295 34.9947C70.8295 34.91 70.8464 34.7858 70.8972 34.6786C71.1963 33.9956 71.4897 32.8047 71.6138 31.7548C71.6646 31.3541 71.9975 31.1791 72.3474 31.1791ZM77.4542 33.7529C77.4542 33.8037 77.4711 33.8602 77.4711 33.911C77.4711 34.3682 77.0874 34.6278 76.7206 34.6278C76.3877 34.6278 76.0548 34.4359 76.004 34.0521C75.8798 33.3014 75.688 32.5281 75.4623 31.7944C75.4453 31.7266 75.4284 31.6702 75.4284 31.6025C75.4284 31.2186 75.7952 30.9703 76.1789 30.9703C76.4385 30.9703 76.7206 31.1114 76.8448 31.4444C77.1438 32.2854 77.3696 33.0869 77.4598 33.7529H77.4542ZM81.2011 33.053H79.0116C78.5376 33.053 78.3119 32.6354 78.3119 32.229C78.3119 31.8226 78.5376 31.4049 79.0116 31.4049H81.2011V30.039C81.2011 29.531 81.6751 29.2714 82.1265 29.2714C82.5779 29.2714 83.0519 29.531 83.0519 30.039V31.4049H85.3599C85.8339 31.4049 86.0765 31.8226 86.0765 32.229C86.0765 32.6354 85.8339 33.053 85.3599 33.053H83.0519V35.1527H86.2345C86.7085 35.1527 86.9512 35.5704 86.9512 35.9937C86.9512 36.417 86.7085 36.8347 86.2345 36.8347H77.663C77.189 36.8347 76.9633 36.417 76.9633 35.9937C76.9633 35.5704 77.189 35.1527 77.663 35.1527H81.1954V33.053H81.2011ZM83.7347 22.0805C85.0326 22.0805 85.6928 22.6224 85.6928 23.4295C85.6928 23.7794 85.5517 24.1802 85.2922 24.6204C84.852 25.3034 84.2934 25.9525 83.667 26.579C84.4909 27.1378 85.4332 27.6119 86.432 27.9449C86.9399 28.1199 87.1656 28.4868 87.1656 28.8537C87.1656 29.3109 86.8157 29.7455 86.274 29.7455C86.1329 29.7455 85.9919 29.7116 85.8395 29.6552C84.5642 29.181 83.3736 28.5376 82.3409 27.7135C81.2914 28.5037 80.1346 29.1867 79.0342 29.6552C78.8762 29.7229 78.7351 29.7455 78.5941 29.7455C78.1031 29.7455 77.7702 29.3447 77.7702 28.9214C77.7702 28.6053 77.9451 28.3118 78.3288 28.1538C79.3276 27.7361 80.27 27.2112 81.1108 26.596C80.2869 25.7549 79.6211 24.7785 79.1358 23.7061H78.3458C77.8887 23.7061 77.6461 23.3053 77.6461 22.882C77.6461 22.4587 77.8887 22.0749 78.3458 22.0749H83.7347V22.0805ZM80.9528 23.7061C81.3365 24.389 81.8274 24.9817 82.3691 25.5235C82.8601 25.0494 83.2607 24.5584 83.5767 24.0504C83.6275 23.9657 83.667 23.8923 83.667 23.8415C83.667 23.7343 83.5598 23.7004 83.3849 23.7004H80.9528V23.7061Z" fill="white"/>
<path d="M91.1551 27.1039C91.3639 27.3523 91.4542 27.578 91.4542 27.8038C91.4542 28.3287 90.9802 28.7464 90.4893 28.7464C90.2466 28.7464 89.9984 28.6392 89.8065 28.4303C89.3889 27.9732 88.7739 27.4144 88.3901 27.0983C88.1475 26.8894 88.0403 26.6637 88.0403 26.4323C88.0403 25.9751 88.4974 25.5574 89.0221 25.5574C89.214 25.5574 89.4397 25.6251 89.6372 25.7662C90.162 26.1331 90.7545 26.6411 91.1608 27.0983L91.1551 27.1039ZM91.4542 30.4962C91.9621 30.4962 92.4699 30.8292 92.4699 31.371C92.4699 31.4557 92.4699 31.5629 92.4361 31.6532C91.9452 33.2788 91.1608 35.1188 90.4216 36.3098C90.1789 36.7105 89.8291 36.8686 89.4792 36.8686C88.9714 36.8686 88.5143 36.5186 88.5143 36.0106C88.5143 35.8357 88.5651 35.6438 88.6892 35.4519C89.3889 34.3117 90.1056 32.6353 90.5796 31.1114C90.7206 30.6711 91.0874 30.4962 91.4542 30.4962ZM92.2555 22.8876C92.4474 23.1134 92.5377 23.3618 92.5377 23.5706C92.5377 24.0955 92.0806 24.4963 91.5953 24.4963C91.3527 24.4963 91.1213 24.389 90.8956 24.1463C90.478 23.7061 89.9532 23.1811 89.5639 22.8481C89.3212 22.6393 89.214 22.4135 89.214 22.199C89.214 21.7418 89.6711 21.358 90.1789 21.358C90.4046 21.358 90.6134 21.4088 90.8279 21.5669C91.3188 21.9337 91.8605 22.4248 92.2612 22.882L92.2555 22.8876ZM101.826 24.4963C101.233 25.247 100.584 25.913 99.8339 26.5113C100.951 27.0023 102.249 27.3353 103.716 27.5273C104.258 27.595 104.506 27.9844 104.506 28.3852C104.506 28.8593 104.156 29.3504 103.598 29.3504C103.547 29.3504 103.474 29.3334 103.423 29.3334C101.532 29.0343 99.6985 28.4247 98.299 27.5837C96.7924 28.4755 95.0995 29.1077 93.2769 29.5084C93.2092 29.5253 93.1189 29.5253 93.0512 29.5253C92.5264 29.5253 92.1934 29.1077 92.1934 28.6843C92.1934 28.3344 92.3853 28.0183 92.8593 27.9167C94.3659 27.5837 95.6751 27.1491 96.8319 26.5677C96.0983 25.9751 95.4494 25.2752 94.9077 24.5019H93.6154C93.1584 24.5019 92.9157 24.1012 92.9157 23.7117C92.9157 23.3222 93.1584 22.9215 93.6154 22.9215H97.3623V21.8547C97.3623 21.3298 97.8363 21.0871 98.2877 21.0871C98.7392 21.0871 99.2132 21.3298 99.2132 21.8547V22.9215H103.569C104.043 22.9215 104.269 23.3222 104.269 23.7117C104.269 24.1012 104.043 24.5019 103.569 24.5019H101.837L101.826 24.4963ZM100.443 30.2027V29.8866C100.443 29.3955 100.917 29.1528 101.369 29.1528C101.82 29.1528 102.294 29.3955 102.294 29.8866V36.592C102.294 37.0831 101.837 37.3258 101.369 37.3258C100.9 37.3258 100.443 37.0831 100.443 36.592V34.2496H95.5622C95.2124 35.2825 94.6707 36.1913 93.9202 36.942C93.6775 37.1847 93.3954 37.2919 93.1302 37.2919C92.6392 37.2919 92.2047 36.9081 92.2047 36.434C92.2047 36.2082 92.2894 35.9768 92.5207 35.751C93.6211 34.6109 94.1459 33.1772 94.1459 31.2864V29.9938C94.1459 29.5028 94.6199 29.2601 95.0713 29.2601C95.5227 29.2601 95.9967 29.5028 95.9967 29.9938V30.2027H100.443ZM95.9855 31.6871C95.9855 32.0371 95.9516 32.4039 95.8952 32.7539H100.443V31.6871H95.9798H95.9855ZM96.9617 24.4963C97.3623 24.9309 97.8025 25.3203 98.2934 25.6703C98.7674 25.3203 99.2188 24.9196 99.6251 24.4963H96.9673H96.9617Z" fill="white"/>
<path d="M107.091 24.0221C106.617 24.0221 106.391 23.6045 106.391 23.1981C106.391 22.7917 106.617 22.374 107.091 22.374H112.412V21.5669C112.412 21.0758 112.886 20.85 113.354 20.85C113.823 20.85 114.297 21.0758 114.297 21.5669V22.374H119.561C120.035 22.374 120.261 22.7747 120.261 23.1981C120.261 23.6214 120.035 24.0221 119.561 24.0221H116.554C116.796 24.1632 116.954 24.389 116.954 24.6712C116.954 24.7954 116.92 24.9139 116.87 25.0381C116.661 25.4727 116.435 25.896 116.204 26.2968H120.143C120.617 26.2968 120.842 26.6975 120.842 27.1039C120.842 27.5103 120.617 27.9111 120.143 27.9111H109.066C108.507 27.9111 108.349 28.0691 108.349 28.5207V30.3212C108.349 32.4039 107.892 34.5036 107.017 36.3042C106.791 36.7613 106.425 36.9533 106.075 36.9533C105.601 36.9533 105.149 36.6033 105.149 36.1122C105.149 35.9711 105.183 35.83 105.257 35.6946C106.097 33.9279 106.464 32.229 106.464 30.197V28.2384C106.464 26.9459 107.096 26.2968 108.704 26.2968H110.837C110.747 26.2291 110.679 26.1218 110.612 25.9976C110.471 25.7549 110.262 25.405 110.087 25.1228C109.98 24.9647 109.929 24.8067 109.929 24.6656C109.929 24.3834 110.104 24.1576 110.347 24.0165H107.091V24.0221ZM113.704 29.0117C113.704 28.5037 114.178 28.261 114.629 28.261C115.081 28.261 115.555 28.5037 115.555 29.0117V29.8527H119.245C119.702 29.8527 119.911 30.2196 119.911 30.6034C119.911 30.9872 119.702 31.3541 119.245 31.3541H115.555V32.4942H118.23C118.67 32.4942 118.895 32.8781 118.895 33.2619C118.895 33.6457 118.67 34.0295 118.23 34.0295H115.555V35.2543H120.278C120.735 35.2543 120.944 35.6381 120.944 36.0445C120.944 36.4509 120.735 36.8347 120.278 36.8347H108.992C108.552 36.8347 108.326 36.434 108.326 36.0445C108.326 35.6551 108.552 35.2543 108.992 35.2543H113.698V34.0295H111.424C110.984 34.0295 110.775 33.6457 110.775 33.2619C110.775 32.8781 110.984 32.4942 111.424 32.4942H113.698V31.3541H111.232C110.933 31.8959 110.617 32.4209 110.268 32.9119C110.059 33.1941 109.777 33.3127 109.517 33.3127C109.083 33.3127 108.659 32.9797 108.659 32.5225C108.659 32.3306 108.71 32.1387 108.868 31.9298C109.427 31.1622 110.025 30.0051 110.409 28.8819C110.55 28.4811 110.883 28.3062 111.232 28.3062C111.69 28.3062 112.141 28.6053 112.141 29.0738C112.141 29.1585 112.124 29.2488 112.09 29.3334C112.039 29.5084 111.966 29.6664 111.898 29.8414H113.698V29.0004L113.704 29.0117ZM111.379 24.0221C111.464 24.0729 111.537 24.1463 111.605 24.231C111.848 24.5471 112.062 24.8631 112.254 25.1962C112.338 25.3542 112.378 25.5122 112.378 25.6533C112.378 25.9186 112.237 26.1444 112.028 26.3024H114.178C114.528 25.6703 114.827 25.0776 115.087 24.4624C115.171 24.2705 115.295 24.1294 115.436 24.0278H111.379V24.0221Z" fill="white"/>
<path d="M124.177 28.4529C123.76 28.4529 123.545 28.0861 123.545 27.7192C123.545 27.3523 123.754 26.9854 124.177 26.9854H127.783L127.749 26.9346C127.574 26.675 127.416 26.4266 127.241 26.2009C127.117 26.0428 127.066 25.8848 127.066 25.7437C127.066 25.5179 127.19 25.326 127.382 25.2018H123.376C122.958 25.2018 122.727 24.818 122.727 24.4342C122.727 24.0504 122.953 23.6835 123.376 23.6835H126.034C125.893 23.6158 125.774 23.5085 125.667 23.3505C125.509 23.0908 125.3 22.8425 125.001 22.4926C124.86 22.3345 124.809 22.1765 124.809 22.0354C124.809 21.6346 125.21 21.2847 125.667 21.2847C125.893 21.2847 126.124 21.3693 126.316 21.5669C126.598 21.8265 126.824 22.0918 127.049 22.4248C127.19 22.6337 127.258 22.8256 127.258 23.0005C127.258 23.2997 127.049 23.5593 126.784 23.6835H128.099V21.533C128.099 21.042 128.533 20.8162 128.974 20.8162C129.414 20.8162 129.848 21.042 129.848 21.533V23.6835H131.073V21.533C131.073 21.042 131.507 20.8162 131.964 20.8162C132.421 20.8162 132.839 21.042 132.839 21.533V23.6835H134.238C133.973 23.5593 133.781 23.3166 133.781 23.0175C133.781 22.8425 133.832 22.6845 133.973 22.5095C134.199 22.2498 134.413 21.9676 134.622 21.6177C134.797 21.3185 135.079 21.2 135.356 21.2C135.79 21.2 136.247 21.533 136.247 21.9676C136.247 22.0918 136.197 22.2273 136.106 22.3853C135.864 22.7691 135.598 23.1529 135.299 23.469C135.215 23.5537 135.124 23.6271 135.017 23.6779H137.714C138.172 23.6779 138.38 24.0617 138.38 24.4285C138.38 24.7954 138.172 25.1962 137.714 25.1962H133.674C133.849 25.3203 133.973 25.4953 133.973 25.7211C133.973 25.8453 133.939 25.9638 133.866 26.088C133.691 26.421 133.516 26.6976 133.324 26.9798H137.173C137.59 26.9798 137.805 27.3467 137.805 27.7135C137.805 28.0804 137.596 28.4473 137.173 28.4473H131.4V29.3391H135.739C136.157 29.3391 136.355 29.689 136.355 30.0559C136.355 30.4228 136.163 30.7727 135.739 30.7727H131.4V31.6984H137.506C137.946 31.6984 138.155 32.0653 138.155 32.4322C138.155 32.7991 137.946 33.1659 137.506 33.1659H132.534C134.058 33.99 135.948 34.656 137.974 35.0906C138.465 35.1979 138.674 35.5648 138.674 35.9316C138.674 36.3663 138.375 36.7896 137.833 36.7896C137.743 36.7896 137.641 36.7727 137.534 36.7557C135.243 36.18 132.986 35.2148 131.304 34.0803L131.389 35.7454V36.7952C131.389 37.2524 130.954 37.4782 130.497 37.4782C130.04 37.4782 129.606 37.2524 129.606 36.7952V35.7454L129.673 34.1537C127.958 35.3277 125.735 36.2872 123.534 36.9025C123.427 36.9194 123.342 36.9363 123.252 36.9363C122.744 36.9363 122.445 36.5356 122.445 36.1292C122.445 35.7962 122.637 35.4801 123.094 35.3616C124.984 34.8875 126.858 34.1198 128.449 33.1716H123.551C123.133 33.1716 122.902 32.8047 122.902 32.4378C122.902 32.0709 123.128 31.7041 123.551 31.7041H129.606V30.7784H125.373C124.973 30.7784 124.758 30.4115 124.758 30.0616C124.758 29.7116 124.967 29.3447 125.373 29.3447H129.606V28.4529H124.166H124.177ZM131.383 26.9798C131.682 26.5452 131.959 26.0541 132.173 25.58C132.258 25.405 132.365 25.2808 132.489 25.1962H128.449C128.517 25.23 128.573 25.2808 128.624 25.3373C128.849 25.6195 129.007 25.8283 129.199 26.1444C129.284 26.2855 129.323 26.4266 129.323 26.5452C129.323 26.7032 129.256 26.8612 129.149 26.9798H131.389H131.383Z" fill="white"/>
<path d="M151.269 28.5207C152.967 28.5207 153.56 29.0625 153.56 30.3381V35.2543C153.56 36.8122 152.651 37.0718 151.269 37.0718H145.496C143.797 37.0718 143.205 36.5299 143.205 35.2543V30.3381C143.205 30.2535 143.205 30.1632 143.222 30.0785C142.33 30.3946 141.439 30.6542 140.547 30.8687C140.44 30.8856 140.355 30.9026 140.265 30.9026C139.689 30.9026 139.356 30.4454 139.356 29.9938C139.356 29.6269 139.582 29.277 140.073 29.1528C143.572 28.3457 147.595 26.6355 149.909 24.7446C150.134 24.5527 150.383 24.485 150.608 24.485C151.133 24.485 151.573 24.9027 151.573 25.3598C151.573 25.5856 151.449 25.8509 151.156 26.0597C149.914 26.9346 148.357 27.8264 146.816 28.5263H151.28L151.269 28.5207ZM144.012 22.3458C144.52 22.3458 145.011 22.7635 145.011 23.2376C145.011 23.4126 144.943 23.6045 144.785 23.7794C143.91 24.7446 142.753 25.7211 141.495 26.4379C141.303 26.5452 141.111 26.596 140.936 26.596C140.412 26.596 140.028 26.1613 140.028 25.6872C140.028 25.3711 140.203 25.0551 140.604 24.8124C141.546 24.2536 142.562 23.4464 143.335 22.6449C143.543 22.4361 143.792 22.3458 144.017 22.3458H144.012ZM148.718 24.2536C148.718 25.5122 148.001 26.1275 146.529 26.1275C146.32 26.1275 145.846 26.0936 145.496 26.0428C145.005 25.9581 144.762 25.5687 144.762 25.1849C144.762 24.7503 145.061 24.3269 145.586 24.3269C145.654 24.3269 145.727 24.3269 145.795 24.3439C146.111 24.3947 146.235 24.4116 146.461 24.4116C146.777 24.4116 146.861 24.3439 146.861 24.0109V21.629C146.861 21.1379 147.319 20.8952 147.77 20.8952C148.221 20.8952 148.712 21.1548 148.712 21.6459V24.2536H148.718ZM151.709 30.3946C151.709 30.0108 151.601 29.9035 151.099 29.9035H145.66C145.169 29.9035 145.067 30.0108 145.067 30.3946V30.9195H151.714V30.3946H151.709ZM145.061 33.2449H151.709V32.229H145.061V33.2449ZM151.094 35.6946C151.601 35.6946 151.703 35.5704 151.703 35.1866V34.5544H145.056V35.1866C145.056 35.6212 145.248 35.6946 145.648 35.6946H151.088H151.094ZM155.015 24.5132C155.258 24.7728 155.365 25.0381 155.365 25.3034C155.365 25.8114 154.948 26.2121 154.44 26.2121C154.197 26.2121 153.932 26.1049 153.689 25.8622C152.956 25.1115 152.081 24.3213 151.274 23.7794C150.958 23.5706 150.817 23.2884 150.817 23.0288C150.817 22.5716 151.218 22.1539 151.743 22.1539C151.934 22.1539 152.143 22.2047 152.352 22.3458C153.277 22.9384 154.276 23.7456 155.01 24.5132H155.015Z" fill="white"/>
<path d="M75.1179 52.4074C75.1179 53.0001 74.5932 53.3162 74.0684 53.3162C73.5436 53.3162 73.0188 53.0001 73.0188 52.4074V45.527C73.0188 44.9174 73.5436 44.6013 74.0684 44.6013C74.5932 44.6013 75.1179 44.9174 75.1179 45.527V52.4074ZM79.7338 45.2279C79.7338 44.6352 80.2586 44.3361 80.8003 44.3361C81.3082 44.3361 81.833 44.6352 81.833 45.2279V50.4263C81.833 54.8514 79.9426 57.5325 76.5682 59.1411C76.3763 59.2257 76.2014 59.2822 76.0434 59.2822C75.4509 59.2822 75.0107 58.7742 75.0107 58.2493C75.0107 57.9163 75.2026 57.5663 75.6597 57.3405C78.5827 55.9069 79.7338 53.7903 79.7338 50.2908V45.2335V45.2279Z" fill="white"/>
<path d="M94.0555 45.5778H94.1627C95.455 45.5778 96.1208 46.1704 96.1208 47.0848C96.1208 47.367 96.0531 47.6774 95.929 48.0274C95.3873 49.478 94.5465 50.9003 93.5307 52.2098C95.1559 53.3105 96.9785 54.9247 98.22 56.3584C98.4457 56.618 98.5529 56.9002 98.5529 57.1486C98.5529 57.7243 98.0112 58.1984 97.4356 58.1984C97.1535 58.1984 96.8431 58.0743 96.5948 57.7807C95.5114 56.4656 93.9032 54.8739 92.2893 53.666C90.5908 55.5061 88.565 57.0244 86.5844 58.0065C86.4094 58.0912 86.2345 58.1307 86.0765 58.1307C85.484 58.1307 85.0608 57.6227 85.0608 57.1147C85.0608 56.7648 85.2357 56.4318 85.6533 56.2229C89.2929 54.3829 92.357 51.4083 93.7395 48.0161C93.7903 47.9089 93.8073 47.8073 93.8073 47.7339C93.8073 47.5758 93.6662 47.5081 93.3727 47.5081L87.1091 47.6323C86.5336 47.6492 86.2345 47.1582 86.2345 46.6897C86.2345 46.2212 86.5336 45.7245 87.0922 45.7076L94.0555 45.5834V45.5778Z" fill="white"/>
<path d="M104.596 44.7198C104.579 44.669 104.579 44.5957 104.579 44.5449C104.579 44.003 105.104 43.7039 105.612 43.7039C106.052 43.7039 106.487 43.9296 106.577 44.4376L107.085 47.288L111.041 46.6784C111.091 46.6615 111.148 46.6615 111.199 46.6615C111.774 46.6615 112.09 47.1695 112.09 47.6436C112.09 48.0274 111.864 48.4112 111.373 48.4846L107.401 49.0998L107.835 51.5664L112.959 50.7084C113.01 50.6915 113.083 50.6915 113.134 50.6915C113.693 50.6915 114.009 51.1826 114.009 51.6567C114.009 52.0405 113.783 52.4243 113.292 52.5146L108.146 53.3726L108.987 58.0968C109.003 58.1476 109.003 58.221 109.003 58.2718C109.003 58.8137 108.496 59.1298 107.988 59.1298C107.553 59.1298 107.113 58.904 107.023 58.3791L106.182 53.7056L101.058 54.5635C101.007 54.5804 100.951 54.5804 100.9 54.5804C100.342 54.5804 100.026 54.0725 100.026 53.5983C100.026 53.2145 100.251 52.8307 100.742 52.7404L105.866 51.8825L105.426 49.399L101.504 50.0086C101.453 50.0255 101.397 50.0255 101.346 50.0255C100.804 50.0255 100.488 49.5175 100.488 49.0434C100.488 48.6426 100.697 48.2532 101.205 48.1854L105.087 47.5928L104.579 44.7198H104.596Z" fill="white"/>
<path d="M119.73 52.4074C119.73 53.0001 119.206 53.3162 118.681 53.3162C118.156 53.3162 117.631 53.0001 117.631 52.4074V45.527C117.631 44.9174 118.156 44.6013 118.681 44.6013C119.206 44.6013 119.73 44.9174 119.73 45.527V52.4074ZM124.346 45.2279C124.346 44.6352 124.871 44.3361 125.413 44.3361C125.921 44.3361 126.446 44.6352 126.446 45.2279V50.4263C126.446 54.8514 124.555 57.5325 121.181 59.1411C120.989 59.2257 120.814 59.2822 120.656 59.2822C120.063 59.2822 119.623 58.7742 119.623 58.2493C119.623 57.9163 119.815 57.5663 120.272 57.3405C123.195 55.9069 124.346 53.7903 124.346 50.2908V45.2335V45.2279Z" fill="white"/>
<path d="M134.972 47.9427C135.198 48.1685 135.288 48.4338 135.288 48.6934C135.288 49.2861 134.763 49.8505 134.171 49.8505C133.905 49.8505 133.629 49.7433 133.381 49.5006C132.591 48.7104 131.772 47.9766 130.999 47.384C130.7 47.1582 130.582 46.876 130.582 46.5938C130.582 46.0519 131.09 45.527 131.699 45.527C131.925 45.527 132.156 45.5947 132.399 45.7527C133.206 46.2946 134.148 47.0679 134.972 47.9427ZM142.669 47.4348C143.211 47.4348 143.735 47.8186 143.735 48.3999C143.735 48.5749 143.668 48.7668 143.56 48.9587C141.061 53.35 137.088 56.5221 132.749 58.1646C132.574 58.2323 132.416 58.2492 132.275 58.2492C131.643 58.2492 131.225 57.7074 131.225 57.1825C131.225 56.7987 131.417 56.4318 131.908 56.2568C135.88 54.7498 139.678 51.7244 141.777 47.9766C141.986 47.5928 142.336 47.4348 142.669 47.4348Z" fill="white"/>
<path d="M154.807 46.7687C156.257 46.7518 156.996 47.3275 156.996 48.3774C156.996 48.6596 156.945 48.97 156.838 49.303C155.631 53.3782 152.64 57.0922 148.825 59.2088C148.617 59.333 148.425 59.3668 148.25 59.3668C147.674 59.3668 147.251 58.8927 147.251 58.3678C147.251 58.0348 147.443 57.6679 147.866 57.4252C151.348 55.3763 153.673 52.4356 154.745 49.1111C154.779 49.0265 154.795 48.9362 154.795 48.8684C154.795 48.6765 154.654 48.5862 154.321 48.5862L150.4 48.6201C149.542 49.8788 148.543 51.0528 147.55 51.9446C147.285 52.1873 147.008 52.2776 146.743 52.2776C146.218 52.2776 145.761 51.8768 145.761 51.3519C145.761 51.0923 145.902 50.7931 146.201 50.5109C147.866 49.0039 149.508 46.6446 150.417 44.4884C150.608 44.0312 150.992 43.8224 151.382 43.8224C151.906 43.8224 152.414 44.1893 152.414 44.7481C152.414 44.8723 152.38 45.0077 152.324 45.1488C152.098 45.6907 151.833 46.2325 151.54 46.7913L154.812 46.7574L154.807 46.7687ZM155.862 44.6691C155.862 44.3191 156.212 44.02 156.596 44.02C156.77 44.02 156.962 44.0877 157.12 44.2627C157.56 44.7368 158.029 45.3464 158.345 45.9052C158.429 46.0463 158.469 46.1874 158.469 46.3228C158.469 46.7236 158.119 47.0227 157.752 47.0227C157.527 47.0227 157.318 46.8986 157.16 46.6389C156.81 46.0293 156.37 45.4818 156.003 45.0472C155.896 44.923 155.862 44.7876 155.862 44.6634V44.6691ZM157.713 43.4442C157.713 43.0943 158.063 42.8347 158.429 42.8347C158.621 42.8347 158.83 42.9024 159.005 43.0774C159.423 43.512 159.897 44.0933 160.213 44.6352C160.32 44.8102 160.371 44.9682 160.371 45.1093C160.371 45.5101 160.038 45.7923 159.671 45.7923C159.445 45.7923 159.197 45.6681 159.022 45.4085C158.672 44.8666 158.232 44.2909 157.865 43.8337C157.758 43.7095 157.707 43.5741 157.707 43.4499L157.713 43.4442Z" fill="white"/>
<path d="M165.618 49.7998C166.076 49.6248 166.583 49.5006 167.125 49.5006C168.333 49.5006 169.117 49.8675 169.574 51.1657C170.94 50.59 172.407 50.065 173.947 49.5909C174.072 49.557 174.19 49.5401 174.297 49.5401C174.873 49.5401 175.206 50.0142 175.206 50.4827C175.206 50.8496 174.997 51.2334 174.506 51.3745C172.982 51.8317 171.425 52.3566 169.958 52.9493C170.048 53.5984 170.082 54.366 170.116 55.2747C170.133 55.8674 169.625 56.1835 169.117 56.1835C168.66 56.1835 168.209 55.9182 168.192 55.3763C168.175 54.7103 168.141 54.1515 168.107 53.6774C166.29 54.6031 165.867 55.3933 165.867 56.0424C165.867 56.7253 166.499 57.1261 168.508 57.1261C169.608 57.1261 170.765 57.0188 171.905 56.8269C171.972 56.81 172.046 56.81 172.096 56.81C172.689 56.81 173.039 57.2841 173.039 57.7752C173.039 58.1928 172.757 58.6162 172.164 58.7178C171.024 58.9266 169.732 59 168.575 59C165.269 59 163.869 57.8993 163.869 56.1835C163.869 54.7837 164.693 53.4347 167.808 51.8769C167.582 51.2278 167.215 51.0867 166.583 51.0867C165.951 51.0867 164.659 51.5608 162.995 52.8872C162.786 53.0452 162.577 53.113 162.363 53.113C161.855 53.113 161.42 52.6783 161.42 52.1873C161.42 51.922 161.544 51.6624 161.821 51.4197C162.921 50.4545 163.92 49.32 164.778 48.0049C164.095 48.0557 163.463 48.0726 162.887 48.0952C162.255 48.1121 161.922 47.638 161.922 47.1864C161.922 46.7349 162.238 46.2946 162.887 46.2946C163.711 46.2946 164.687 46.2438 165.703 46.1705C166.002 45.4706 166.262 44.7876 166.471 44.1385C166.612 43.7039 166.978 43.5063 167.362 43.5063C167.853 43.5063 168.327 43.8224 168.327 44.3135C168.327 44.3981 168.327 44.4885 168.293 44.5788C168.135 45.0698 167.96 45.5214 167.768 45.9616C168.677 45.877 169.552 45.7528 170.308 45.6117C170.375 45.5947 170.449 45.5947 170.516 45.5947C171.058 45.5947 171.357 46.0124 171.357 46.4357C171.357 46.8196 171.115 47.2259 170.59 47.3106C169.489 47.5025 168.175 47.6944 166.882 47.8186C166.448 48.5354 166.008 49.2015 165.59 49.7602L165.624 49.7941L165.618 49.7998Z" fill="white"/>
<path d="M181.165 55.7997C182.231 56.8834 183.913 57.3067 187.829 57.3067C189.646 57.3067 191.153 57.2559 192.501 57.1317H192.625C193.184 57.1317 193.466 57.572 193.466 58.0235C193.466 58.4751 193.207 58.8984 192.625 58.9322C191.209 59.0395 189.719 59.0903 187.868 59.0903C183.619 59.0903 181.729 58.5654 180.414 57.2728C179.839 57.9219 179.156 58.5654 178.439 59.0903C178.23 59.2314 178.022 59.2991 177.824 59.2991C177.333 59.2991 176.916 58.8814 176.916 58.4073C176.916 58.1251 177.057 57.8485 177.423 57.5833C178.072 57.1261 178.738 56.5503 179.314 55.9182V52.8195C179.314 52.5034 179.246 52.3792 178.789 52.3792H177.897C177.39 52.3792 177.13 51.9446 177.13 51.5213C177.13 51.0979 177.39 50.6633 177.897 50.6633H179.212C180.629 50.6633 181.17 51.2729 181.17 52.5542V55.794L181.165 55.7997ZM180.99 45.7923C181.182 46.0181 181.272 46.2664 181.272 46.4922C181.272 47.034 180.798 47.4743 180.273 47.4743C179.991 47.4743 179.714 47.3501 179.483 47.0736C179.082 46.5825 178.693 46.1987 178.191 45.7754C177.948 45.5665 177.858 45.3182 177.858 45.0924C177.858 44.6183 178.275 44.1837 178.823 44.1837C179.032 44.1837 179.257 44.2514 179.489 44.4094C180.064 44.8271 180.572 45.3182 180.995 45.7923H180.99ZM188.252 53.525V55.7827C188.252 56.2173 187.835 56.4488 187.394 56.4488C186.954 56.4488 186.537 56.223 186.537 55.7827V53.525H184.488V55.9069C184.488 56.3472 184.048 56.5729 183.614 56.5729C183.179 56.5729 182.739 56.3472 182.739 55.9069V49.0491C182.739 47.892 183.388 47.3896 184.753 47.3896H186.085C185.786 47.1639 185.527 46.9494 185.227 46.7405C184.968 46.5486 184.861 46.3229 184.861 46.1084C184.861 45.7754 185.109 45.4931 185.453 45.4085H183.23C182.812 45.4085 182.598 45.0247 182.598 44.6578C182.598 44.257 182.807 43.8732 183.23 43.8732H189.544C190.701 43.8732 191.26 44.3981 191.26 45.0303C191.26 45.4311 191.017 45.8882 190.543 46.2551C189.984 46.6728 189.386 47.0623 188.67 47.3953H190.317C191.559 47.3953 192.174 47.8694 192.174 48.987V54.9361C192.174 55.9351 191.525 56.4939 190.391 56.4939C190.126 56.4939 189.815 56.477 189.516 56.4431C189.025 56.3923 188.799 56.0254 188.799 55.6529C188.799 55.2691 189.059 54.8627 189.482 54.8627H189.589C189.697 54.8796 189.905 54.9135 190.08 54.9135C190.363 54.9135 190.43 54.8288 190.43 54.5974V53.5306H188.263L188.252 53.525ZM184.979 48.8176C184.595 48.8176 184.488 48.9023 184.488 49.1845V49.7772H186.537V48.812H184.979V48.8176ZM186.537 52.1421V51.16H184.488V52.1421H186.537ZM185.978 45.4028C186.102 45.4367 186.204 45.4875 186.328 45.5609C186.695 45.7866 187.028 46.0519 187.377 46.3285C187.835 46.1366 188.218 45.9278 188.653 45.6625C188.737 45.6117 188.777 45.5552 188.777 45.5044C188.777 45.4536 188.709 45.3972 188.568 45.3972H185.978V45.4028ZM190.419 49.2015C190.419 48.9023 190.227 48.8176 189.911 48.8176H188.246V49.7828H190.413V49.2071L190.419 49.2015ZM190.419 51.1657H188.252V52.1478H190.419V51.1657Z" fill="white"/>
<path d="M196.575 44.9513C196.609 44.3586 197.1 44.0764 197.591 44.0764C198.116 44.0764 198.607 44.3756 198.607 44.9513C198.607 45.1771 198.573 45.5439 198.556 45.7415C198.381 48.3322 198.24 51.081 198.24 53.6548C198.24 55.9972 198.957 56.6294 200.198 56.6294C201.823 56.6294 203.347 55.9633 204.955 53.9709C205.198 53.6548 205.514 53.5306 205.796 53.5306C206.337 53.5306 206.828 53.9483 206.828 54.4958C206.828 54.7046 206.761 54.9135 206.586 55.1449C204.594 57.6284 202.472 58.5766 200.198 58.5766C197.591 58.5766 196.208 57.2841 196.208 53.6435C196.208 50.8609 196.383 47.5364 196.575 44.9626V44.9513ZM202.207 46.9099C202.207 46.5599 202.557 46.2438 202.94 46.2438C203.098 46.2438 203.273 46.2946 203.431 46.4357C203.905 46.8534 204.43 47.4178 204.797 47.9597C204.921 48.1177 204.955 48.2758 204.955 48.4338C204.955 48.8176 204.622 49.1337 204.255 49.1337C204.046 49.1337 203.838 49.0265 203.68 48.8007C203.262 48.225 202.788 47.717 202.387 47.3163C202.263 47.1751 202.213 47.034 202.213 46.9155L202.207 46.9099ZM203.939 45.5101C203.939 45.1601 204.272 44.861 204.673 44.861C204.848 44.861 205.023 44.9287 205.198 45.0698C205.655 45.4536 206.179 45.9955 206.546 46.5035C206.687 46.6784 206.738 46.8534 206.738 47.0284C206.738 47.4122 206.405 47.6944 206.038 47.6944C205.83 47.6944 205.598 47.6041 205.423 47.3783C205.023 46.8704 204.532 46.3454 204.131 45.9278C203.99 45.7866 203.939 45.6455 203.939 45.5101Z" fill="white"/>
<path d="M210.096 49.3087C209.52 49.3087 209.221 48.8684 209.221 48.4C209.221 47.9315 209.52 47.4743 210.113 47.4348C210.812 47.4009 211.653 47.2937 212.595 47.1356C212.753 46.1705 212.821 45.4028 212.928 44.4433C212.979 43.9015 213.436 43.6362 213.893 43.6362C214.384 43.6362 214.875 43.9523 214.875 44.511V44.6183C214.79 45.4593 214.7 46.0858 214.593 46.7518C215.084 46.6446 215.592 46.5261 216.1 46.4019C216.184 46.3849 216.275 46.368 216.359 46.368C216.901 46.368 217.234 46.8252 217.234 47.2937C217.234 47.6606 217.025 48.0274 216.551 48.1516C215.744 48.3774 214.977 48.5693 214.277 48.7273C213.645 52.1591 212.81 55.3933 211.828 57.9332C211.619 58.4581 211.179 58.7008 210.761 58.7008C210.271 58.7008 209.797 58.3509 209.797 57.809C209.797 57.651 209.83 57.493 209.904 57.318C210.869 54.9361 211.636 52.1534 212.251 49.0942C211.535 49.2015 210.818 49.3031 210.101 49.3031L210.096 49.3087ZM216.743 54.1741C217.144 54.1741 217.533 54.3999 217.584 54.9079C217.708 56.0254 218.334 56.3415 220.241 56.3415C221.133 56.3415 221.884 56.2738 222.583 56.1665C222.634 56.1496 222.724 56.1496 222.775 56.1496C223.368 56.1496 223.701 56.6576 223.701 57.1317C223.701 57.5494 223.441 57.9727 222.894 58.0574C222.143 58.1816 221.269 58.2493 220.27 58.2493C217.821 58.2493 216.737 57.6171 216.173 56.7253C215.891 56.2907 215.755 55.5852 215.755 55.0998C215.755 54.5071 216.246 54.1741 216.737 54.1741H216.743ZM222.013 48.908C222.645 48.908 222.956 49.3821 222.956 49.8506C222.956 50.319 222.657 50.7424 222.064 50.7424C220.665 50.7424 219.04 50.9512 217.792 51.1995C217.725 51.2165 217.634 51.2165 217.584 51.2165C217.042 51.2165 216.709 50.7819 216.709 50.3077C216.709 49.907 216.952 49.5006 217.516 49.3821C218.882 49.0999 220.614 48.908 222.013 48.908Z" fill="white"/>
<path d="M75.6371 66.9979C75.6202 66.9471 75.6202 66.8737 75.6202 66.8229C75.6202 66.2811 76.145 65.9819 76.6529 65.9819C77.093 65.9819 77.5275 66.2077 77.6178 66.7157L78.1256 69.5661L82.0813 68.9565C82.1321 68.9395 82.1885 68.9396 82.2393 68.9396C82.8149 68.9396 83.1309 69.4475 83.1309 69.9217C83.1309 70.3055 82.9052 70.6893 82.4142 70.7627L78.4416 71.3779L78.8761 73.8445L83.9999 72.9865C84.0507 72.9696 84.124 72.9696 84.1748 72.9696C84.7334 72.9696 85.0495 73.4606 85.0495 73.9348C85.0495 74.3186 84.8237 74.7024 84.3328 74.7927L79.1865 75.6506L80.0273 80.3749C80.0442 80.4257 80.0442 80.4991 80.0442 80.5499C80.0442 81.0918 79.5364 81.4078 79.0285 81.4078C78.594 81.4078 78.1539 81.1821 78.0636 80.6571L77.2228 75.9836L72.099 76.8416C72.0483 76.8585 71.9918 76.8585 71.941 76.8585C71.3824 76.8585 71.0664 76.3505 71.0664 75.8764C71.0664 75.4926 71.2921 75.1088 71.783 75.0185L76.9068 74.1605L76.4666 71.677L72.5448 72.2866C72.4941 72.3036 72.4376 72.3036 72.3868 72.3036C71.8451 72.3036 71.5291 71.7956 71.5291 71.3214C71.5291 70.9207 71.7379 70.5369 72.2458 70.4635L76.1281 69.8709L75.6202 66.9979H75.6371Z" fill="white"/>
<path d="M97.6218 72.1963C97.7968 72.1625 97.9717 72.1625 98.1466 72.1625C99.1454 72.1625 99.7718 72.6874 99.7718 73.5115C99.7718 73.8275 99.6871 74.1775 99.4896 74.5444C98.9818 75.5434 98.2482 76.5594 97.4243 77.327C97.1986 77.5528 96.9334 77.6431 96.7077 77.6431C96.2167 77.6431 95.7992 77.2423 95.7992 76.7682C95.7992 76.5594 95.9064 76.311 96.1321 76.1022C96.7641 75.5265 97.272 74.8774 97.6726 74.1944C97.7234 74.1098 97.7403 74.0533 97.7403 74.0025C97.7403 73.9178 97.6726 73.8614 97.5315 73.8614C97.4977 73.8614 97.4469 73.8783 97.3905 73.8783L93.4912 74.5105L94.7157 80.9337C94.7327 80.9845 94.7327 81.041 94.7327 81.0918C94.7327 81.5828 94.2756 81.8594 93.8242 81.8594C93.4405 81.8594 93.0737 81.6506 92.9834 81.2103L91.7419 74.7871L88.802 75.2612C88.7512 75.2781 88.6948 75.2781 88.644 75.2781C88.1361 75.2781 87.854 74.8379 87.854 74.4202C87.854 74.0533 88.0628 73.7034 88.5199 73.63L91.4259 73.1728L90.8673 70.2998C90.8504 70.2321 90.8504 70.1757 90.8504 70.1249C90.8504 69.6338 91.2849 69.3911 91.7419 69.3911C92.1426 69.3911 92.5489 69.6 92.6335 70.0571L93.1752 72.8906L97.6218 72.1907V72.1963Z" fill="white"/>
<path d="M106.109 74.6799C106.109 75.2725 105.584 75.5886 105.059 75.5886C104.534 75.5886 104.01 75.2725 104.01 74.6799V67.7994C104.01 67.1899 104.534 66.8738 105.059 66.8738C105.584 66.8738 106.109 67.1899 106.109 67.7994V74.6799ZM110.73 67.5059C110.73 66.9133 111.255 66.6141 111.797 66.6141C112.305 66.6141 112.829 66.9133 112.829 67.5059V72.7043C112.829 77.1295 110.939 79.8105 107.565 81.4192C107.373 81.5038 107.198 81.5603 107.04 81.5603C106.447 81.5603 106.007 81.0523 106.007 80.5274C106.007 80.1943 106.199 79.8444 106.656 79.6186C109.579 78.185 110.73 76.0684 110.73 72.5632V67.5059Z" fill="white"/>
<path d="M128.11 67.5737C129.651 67.5567 130.401 68.2397 130.401 69.1654C130.401 69.5661 130.243 70.0233 129.944 70.4974C129.227 71.5981 128.263 72.6648 127.162 73.5454C126.92 73.7373 126.654 73.8276 126.429 73.8276C125.904 73.8276 125.486 73.3873 125.486 72.8624C125.486 72.5632 125.627 72.2472 125.977 71.9706C126.694 71.4118 127.377 70.678 127.817 70.0289C127.901 69.9048 127.941 69.8032 127.941 69.7129C127.941 69.5718 127.817 69.504 127.54 69.504L117.603 69.5718C116.988 69.5718 116.678 69.0976 116.678 68.6066C116.678 68.1155 116.994 67.6414 117.603 67.6414L128.116 67.5737H128.11ZM122.304 71.6714C122.304 71.0957 122.812 70.7966 123.319 70.7966C123.827 70.7966 124.335 71.0957 124.335 71.6714V72.4955C124.335 76.2208 122.687 78.9865 119.714 80.7926C119.488 80.9337 119.257 81.0015 119.048 81.0015C118.472 81.0015 118.032 80.5443 118.032 80.0194C118.032 79.6864 118.224 79.3364 118.681 79.0542C121.079 77.6036 122.304 75.5547 122.304 72.4899V71.6658V71.6714Z" fill="white"/>
<path d="M144.401 67.5737C145.942 67.5567 146.692 68.2397 146.692 69.1654C146.692 69.5661 146.534 70.0233 146.235 70.4974C145.519 71.5981 144.554 72.6648 143.453 73.5454C143.211 73.7373 142.945 73.8276 142.72 73.8276C142.195 73.8276 141.777 73.3873 141.777 72.8624C141.777 72.5632 141.918 72.2472 142.268 71.9706C142.985 71.4118 143.668 70.678 144.108 70.0289C144.192 69.9048 144.232 69.8032 144.232 69.7129C144.232 69.5718 144.108 69.504 143.831 69.504L133.894 69.5718C133.279 69.5718 132.969 69.0976 132.969 68.6066C132.969 68.1155 133.285 67.6414 133.894 67.6414L144.407 67.5737H144.401ZM138.589 71.6714C138.589 71.0957 139.097 70.7966 139.605 70.7966C140.113 70.7966 140.62 71.0957 140.62 71.6714V72.4955C140.62 76.2208 138.973 78.9865 135.999 80.7926C135.773 80.9337 135.542 81.0015 135.333 81.0015C134.758 81.0015 134.317 80.5443 134.317 80.0194C134.317 79.6864 134.509 79.3364 134.966 79.0542C137.365 77.6036 138.589 75.5547 138.589 72.4899V71.6658V71.6714Z" fill="white"/>
<path d="M152.414 73.5058C152.448 73.6131 152.465 73.7147 152.465 73.8219C152.465 74.3299 151.957 74.6798 151.466 74.6798C151.133 74.6798 150.817 74.5218 150.659 74.138C150.343 73.3704 149.943 72.5463 149.542 71.8803C149.457 71.7392 149.418 71.5981 149.418 71.4626C149.418 71.0054 149.892 70.6555 150.383 70.6555C150.682 70.6555 150.992 70.7966 151.19 71.1126C151.647 71.8295 152.115 72.7043 152.414 73.5115V73.5058ZM159.502 70.3732C159.992 70.3732 160.517 70.6893 160.517 71.2142C160.517 71.282 160.5 71.3554 160.483 71.44C159.383 75.5717 156.601 79.2461 153.238 81.0636C153.063 81.1482 152.905 81.2047 152.747 81.2047C152.239 81.2047 151.855 80.7475 151.855 80.279C151.855 79.9629 152.013 79.6468 152.397 79.438C155.529 77.6713 157.611 74.7814 158.644 70.9828C158.768 70.5482 159.118 70.3732 159.502 70.3732ZM155.777 72.6648C155.811 72.7721 155.828 72.8737 155.828 72.964C155.828 73.472 155.337 73.805 154.863 73.805C154.53 73.805 154.197 73.63 154.056 73.2293C153.757 72.4391 153.39 71.6714 153.007 71.0054C152.922 70.8643 152.882 70.7232 152.882 70.6047C152.882 70.1475 153.34 69.837 153.825 69.837C154.141 69.837 154.457 69.9612 154.649 70.2942C155.083 71.028 155.506 71.869 155.766 72.6761L155.777 72.6648Z" fill="white"/>
<path d="M173.355 68.3808C175.195 68.3638 175.911 69.0299 175.911 70.1982C175.911 70.4974 175.877 70.8304 175.787 71.1973C174.822 75.3458 171.781 78.913 167.65 80.9281C167.441 81.0353 167.249 81.0692 167.074 81.0692C166.482 81.0692 166.059 80.5781 166.059 80.0363C166.059 79.7033 166.234 79.3364 166.668 79.1106C170.533 77.0956 172.723 74.296 173.631 71.1634C173.665 71.0223 173.682 70.9207 173.682 70.8135C173.682 70.4804 173.457 70.3563 172.949 70.3563L164.513 70.4635C163.847 70.4635 163.497 69.9386 163.497 69.4306C163.497 68.9565 163.813 68.4654 164.422 68.4654L173.344 68.3808H173.355ZM178.71 66.9076C178.71 67.9744 177.886 68.7984 176.837 68.7984C175.787 68.7984 174.946 67.9744 174.946 66.9076C174.946 65.8408 175.77 65.0337 176.837 65.0337C177.903 65.0337 178.71 65.8578 178.71 66.9076ZM175.821 66.9076C175.821 67.4664 176.278 67.9236 176.837 67.9236C177.395 67.9236 177.835 67.4664 177.835 66.9076C177.835 66.3488 177.395 65.9086 176.837 65.9086C176.278 65.9086 175.821 66.3432 175.821 66.9076Z" fill="white"/>
<path d="M190.142 71.6319C191.457 71.6319 192.174 72.1399 192.174 73.0148C192.174 73.3817 192.05 73.7824 191.807 74.2565C191.158 75.4644 190.25 76.5312 189.2 77.4738C190.684 78.4164 192.456 79.0655 194.465 79.4493C195.057 79.5565 195.322 79.9742 195.322 80.3919C195.322 80.9168 194.939 81.4079 194.324 81.4079C194.256 81.4079 194.183 81.4079 194.098 81.3909C191.756 80.9563 189.567 80.0081 187.727 78.6083C185.735 79.9573 183.388 80.9338 180.973 81.4982C180.888 81.5151 180.781 81.5321 180.713 81.5321C180.121 81.5321 179.771 81.041 179.771 80.5669C179.771 80.1831 180.013 79.7993 180.538 79.6751C182.711 79.201 184.669 78.4164 186.294 77.3835C185.594 76.6667 184.962 75.899 184.42 75.058C184.054 74.4992 183.755 73.9179 183.478 73.3083H182.079C181.588 73.3083 181.345 72.8906 181.345 72.4673C181.345 72.044 181.588 71.6263 182.079 71.6263H186.542V69.6677H180.403C179.929 69.6677 179.686 69.2275 179.686 68.8098C179.686 68.3921 179.929 67.9518 180.403 67.9518H186.542V66.061C186.542 65.57 187.016 65.3442 187.484 65.3442C187.953 65.3442 188.427 65.57 188.427 66.061V67.9518H194.674C195.164 67.9518 195.407 68.3695 195.407 68.8098C195.407 69.25 195.164 69.6677 194.674 69.6677H188.427V71.6263H190.142V71.6319ZM185.38 73.3139C185.955 74.4541 186.762 75.5039 187.705 76.3393C188.613 75.5886 189.352 74.7307 189.928 73.7824C189.996 73.6752 190.013 73.5905 190.013 73.5228C190.013 73.3817 189.888 73.3139 189.629 73.3139H185.38Z" fill="white"/>
<path d="M200.649 73.5792C200.841 73.5115 201.016 73.4212 201.191 73.3534C201.315 73.3026 201.434 73.2688 201.541 73.2688C201.998 73.2688 202.331 73.7034 202.331 74.1267C202.331 74.4089 202.19 74.6686 201.891 74.8266C201.507 75.0354 201.084 75.2443 200.649 75.4418V79.9911C200.649 81.1821 200.057 81.7747 198.725 81.7747C198.375 81.7747 198.008 81.7409 197.726 81.6901C197.235 81.6223 197.01 81.2329 197.01 80.8321C197.01 80.375 197.309 79.9234 197.85 79.9234C197.884 79.9234 197.935 79.9403 197.992 79.9403C198.15 79.9742 198.324 79.9911 198.482 79.9911C198.725 79.9911 198.815 79.9234 198.815 79.6412V76.1756C198.449 76.2998 198.099 76.4183 197.766 76.5255C197.659 76.5594 197.574 76.5594 197.484 76.5594C196.959 76.5594 196.626 76.1022 196.626 75.6337C196.626 75.3007 196.818 74.9508 197.258 74.8097C197.749 74.6686 198.274 74.4936 198.815 74.3017V71.011H197.523C197.066 71.011 196.823 70.5934 196.823 70.17C196.823 69.7467 197.066 69.346 197.523 69.346H198.815V66.4053C198.815 65.8973 199.272 65.6546 199.741 65.6546C200.209 65.6546 200.649 65.903 200.649 66.4053V69.346H201.592C202.066 69.346 202.308 69.7637 202.308 70.17C202.308 70.5764 202.06 71.011 201.592 71.011H200.649V73.5849V73.5792ZM203.38 72.3883C202.94 72.3883 202.732 72.0044 202.732 71.6206C202.732 71.2368 202.94 70.8699 203.38 70.8699H204.588C204.43 70.8191 204.289 70.695 204.221 70.52C204.063 70.187 203.888 69.8709 203.73 69.6113C203.663 69.4871 203.623 69.3855 203.623 69.2613C203.623 68.8775 204.024 68.5784 204.464 68.5784C204.712 68.5784 204.989 68.7025 205.164 68.9622C205.322 69.1879 205.514 69.504 205.672 69.837C205.722 69.9612 205.756 70.0628 205.756 70.17C205.756 70.5031 205.491 70.7627 205.181 70.8699H208.38C208.922 70.012 209.289 69.2782 209.605 68.488C209.763 68.1212 210.079 67.9462 210.412 67.9462C210.846 67.9462 211.286 68.2453 211.286 68.6969C211.286 68.8211 211.269 68.9227 211.218 69.0468C210.976 69.6056 210.626 70.2547 210.237 70.8643H211.202C211.636 70.8643 211.867 71.2481 211.867 71.6319C211.867 72.0157 211.642 72.3826 211.202 72.3826H207.212C207.161 72.6423 207.105 72.9075 207.037 73.1728H211.935C212.37 73.1728 212.601 73.5566 212.601 73.9574C212.601 74.3581 212.375 74.725 211.935 74.725H206.546C206.462 75.0072 206.354 75.2669 206.23 75.5321H209.311C210.344 75.5321 210.936 76.0571 210.936 76.757C210.936 77.0561 210.829 77.423 210.57 77.7729C210.27 78.1737 209.904 78.597 209.469 78.9808C210.203 79.28 211.01 79.5227 211.867 79.6976C212.409 79.8049 212.635 80.1887 212.635 80.5556C212.635 81.0297 212.285 81.4982 211.726 81.4982C211.642 81.4982 211.551 81.4812 211.467 81.4643C210.135 81.1652 208.984 80.7305 207.951 80.1153C206.919 80.7644 205.711 81.3063 204.486 81.6731C204.379 81.707 204.278 81.7239 204.17 81.7239C203.663 81.7239 203.33 81.3063 203.33 80.8999C203.33 80.5838 203.522 80.2903 203.962 80.1492C204.904 79.867 205.762 79.5001 206.535 79.0824C206.027 78.6252 205.553 78.1398 205.135 77.598C204.47 78.6478 203.685 79.5904 202.788 80.3975C202.545 80.6064 202.297 80.6967 202.071 80.6967C201.614 80.6967 201.247 80.3298 201.247 79.8895C201.247 79.6412 201.355 79.3816 201.614 79.1558C202.98 77.9648 203.996 76.4804 204.695 74.7306H203.07C202.63 74.7306 202.421 74.3468 202.421 73.9404C202.421 73.5341 202.63 73.1728 203.07 73.1728H205.22C205.288 72.9075 205.344 72.6479 205.412 72.3826H203.38V72.3883ZM210.728 65.9989C211.235 65.9989 211.534 66.4335 211.534 66.8568C211.534 67.1899 211.343 67.5229 210.869 67.6075C208.786 67.9913 205.412 68.3752 203.189 68.4655C202.664 68.4824 202.382 68.0647 202.382 67.6414C202.382 67.2576 202.607 66.8907 203.115 66.8568C205.265 66.7496 208.437 66.4166 210.57 66.0158C210.62 65.9989 210.677 65.9989 210.728 65.9989ZM206.196 68.8888C206.196 68.505 206.614 68.2228 207.037 68.2228C207.319 68.2228 207.613 68.3639 207.788 68.6574C207.929 68.9001 208.121 69.2895 208.245 69.6C208.279 69.6846 208.295 69.7749 208.295 69.8427C208.295 70.2773 207.821 70.5934 207.387 70.5934C207.105 70.5934 206.845 70.4523 206.721 70.1588C206.597 69.8427 206.439 69.4758 206.281 69.1766C206.23 69.0694 206.196 68.9678 206.196 68.8775V68.8888ZM206.529 76.9376C206.969 77.3948 207.438 77.7955 207.946 78.1624C208.312 77.8632 208.628 77.5697 208.871 77.2706C208.939 77.1859 208.978 77.1125 208.978 77.0617C208.978 76.9771 208.894 76.9376 208.736 76.9376H206.529Z" fill="white"/>
<path d="M217.753 72.8624C216.861 72.8624 216.179 72.4955 216.179 71.5134V70.5482C216.179 69.6903 216.703 69.1992 217.753 69.1992H220.586V68.5163H214.638C214.181 68.5163 213.938 68.0986 213.938 67.7091C213.938 67.3197 214.164 66.9415 214.638 66.9415H220.586V66.0328C220.586 65.5417 221.02 65.299 221.46 65.299C221.901 65.299 222.369 65.5586 222.369 66.0497V66.9415H228.565C229.039 66.9415 229.281 67.3253 229.281 67.7261C229.281 68.1268 229.039 68.5163 228.565 68.5163H222.369V69.1992H225.416C226.466 69.1992 226.99 69.6903 226.99 70.5482V71.5134C226.99 72.3713 226.466 72.8624 225.416 72.8624H222.369V73.5284H225.202C227.092 73.5284 227.583 73.9856 227.583 75.137V75.645H228.948C229.422 75.645 229.665 76.0119 229.665 76.3788C229.665 76.7457 229.422 77.1125 228.948 77.1125H227.583V77.6375C227.583 78.7946 227.092 79.2461 225.202 79.2461H222.369V80.0871C222.369 81.5772 221.635 82.0457 220.377 82.0457C219.818 82.0457 219.412 82.0118 219.062 81.9384C218.554 81.8538 218.329 81.4643 218.329 81.0805C218.329 80.6459 218.645 80.1887 219.203 80.1887C219.254 80.1887 219.327 80.1887 219.395 80.2056C219.677 80.2564 219.869 80.2734 220.112 80.2734C220.495 80.2734 220.586 80.1492 220.586 79.8162V79.2404H215.688C215.27 79.2404 215.056 78.8905 215.056 78.5406C215.056 78.1906 215.265 77.8407 215.688 77.8407H220.586V77.1069H214.13C213.673 77.1069 213.448 76.7231 213.448 76.3731C213.448 76.0232 213.673 75.6394 214.13 75.6394H220.586V74.9226H215.688C215.27 74.9226 215.056 74.5726 215.056 74.2227C215.056 73.8727 215.265 73.5228 215.688 73.5228H220.586V72.8567H217.753V72.8624ZM220.591 71.5473V70.5144H218.351C217.984 70.5144 217.894 70.6216 217.894 70.8643V71.1973C217.894 71.5134 218.069 71.5473 218.351 71.5473H220.591ZM222.375 71.5473H224.824C225.19 71.5473 225.281 71.44 225.281 71.1973V70.8643C225.281 70.6216 225.196 70.5144 224.824 70.5144H222.375V71.5473ZM222.375 75.6394H225.805V75.3233C225.805 74.9734 225.698 74.9226 225.072 74.9226H222.375V75.6394ZM222.375 77.1125V77.8463H225.072C225.704 77.8463 225.805 77.7955 225.805 77.4456V77.1125H222.375Z" fill="white"/>
<path d="M232.498 72.9978C232.08 72.9978 231.866 72.631 231.866 72.2641C231.866 71.8972 232.075 71.5303 232.498 71.5303H236.104L236.07 71.4795C235.895 71.2199 235.737 70.9715 235.562 70.7457C235.438 70.5877 235.387 70.4297 235.387 70.2886C235.387 70.0628 235.511 69.8709 235.703 69.7467H231.697C231.279 69.7467 231.048 69.3629 231.048 68.9791C231.048 68.5953 231.273 68.2284 231.697 68.2284H234.354C234.213 68.1607 234.095 68.0534 233.988 67.8954C233.83 67.6357 233.621 67.3874 233.322 67.0374C233.181 66.8794 233.13 66.7214 233.13 66.5803C233.13 66.1795 233.531 65.8296 233.988 65.8296C234.213 65.8296 234.445 65.9142 234.637 66.1118C234.919 66.3714 235.144 66.6367 235.37 66.9697C235.511 67.1786 235.579 67.3705 235.579 67.5454C235.579 67.8446 235.37 68.1042 235.105 68.2284H236.42V66.0779C236.42 65.5869 236.854 65.3611 237.294 65.3611C237.735 65.3611 238.169 65.5869 238.169 66.0779V68.2284H239.394V66.0779C239.394 65.5869 239.828 65.3611 240.285 65.3611C240.742 65.3611 241.16 65.5869 241.16 66.0779V68.2284H242.559C242.294 68.1042 242.102 67.8615 242.102 67.5624C242.102 67.3874 242.153 67.2293 242.294 67.0544C242.52 66.7947 242.734 66.5125 242.943 66.1626C243.118 65.8634 243.4 65.7449 243.677 65.7449C244.111 65.7449 244.568 66.0779 244.568 66.5125C244.568 66.6367 244.517 66.7722 244.427 66.9302C244.184 67.314 243.919 67.6978 243.62 68.0139C243.535 68.0986 243.445 68.1719 243.338 68.2227H246.035C246.492 68.2227 246.701 68.6066 246.701 68.9734C246.701 69.3403 246.492 69.7411 246.035 69.7411H241.995C242.17 69.8652 242.294 70.0402 242.294 70.266C242.294 70.3902 242.26 70.5087 242.187 70.6329C242.012 70.9659 241.837 71.2425 241.645 71.5247H245.494C245.911 71.5247 246.126 71.8915 246.126 72.2584C246.126 72.6253 245.917 72.9922 245.494 72.9922H239.721V73.884H244.06C244.478 73.884 244.675 74.2339 244.675 74.6008C244.675 74.9677 244.483 75.3176 244.06 75.3176H239.721V76.2433H245.826C246.267 76.2433 246.475 76.6102 246.475 76.9771C246.475 77.3439 246.267 77.7108 245.826 77.7108H240.855C242.379 78.5349 244.269 79.2009 246.295 79.6355C246.786 79.7428 246.995 80.1097 246.995 80.4765C246.995 80.9112 246.695 81.3345 246.154 81.3345C246.069 81.3345 245.962 81.3175 245.855 81.3006C243.564 80.7249 241.307 79.7597 239.625 78.6252L239.71 80.2903V81.3401C239.71 81.7973 239.275 82.0231 238.818 82.0231C238.361 82.0231 237.926 81.7973 237.926 81.3401V80.2903L237.994 78.6986C236.279 79.8726 234.055 80.8321 231.855 81.4474C231.747 81.4643 231.663 81.4812 231.573 81.4812C231.065 81.4812 230.766 81.0805 230.766 80.6741C230.766 80.3411 230.957 80.025 231.415 79.9065C233.305 79.4323 235.178 78.6647 236.77 77.7165H231.872C231.454 77.7165 231.223 77.3496 231.223 76.9827C231.223 76.6158 231.448 76.249 231.872 76.249H237.926V75.3233H233.694C233.294 75.3233 233.079 74.9564 233.079 74.6065C233.079 74.2565 233.288 73.8896 233.694 73.8896H237.926V72.9978H232.487H232.498ZM239.704 71.5303C240.003 71.0901 240.28 70.6046 240.494 70.1305C240.579 69.9555 240.686 69.8314 240.81 69.7467H236.77C236.837 69.7806 236.894 69.8314 236.945 69.8878C237.17 70.17 237.328 70.3789 237.52 70.695C237.605 70.8361 237.644 70.9772 237.644 71.0957C237.644 71.2537 237.577 71.4118 237.469 71.536H239.71L239.704 71.5303Z" fill="white"/>
</g>
<defs>
<linearGradient id="paint0_linear_245_5317" x1="1.50166" y1="35.8334" x2="84.8549" y2="7.85377" gradientUnits="userSpaceOnUse">
<stop offset="0.1" stop-color="#F09956"/>
<stop offset="0.7" stop-color="#DC005E"/>
</linearGradient>
<linearGradient id="paint1_linear_245_5317" x1="4.38313" y1="84.1969" x2="40.1437" y2="12.302" gradientUnits="userSpaceOnUse">
<stop offset="0.1" stop-color="#FFEF00"/>
<stop offset="0.7" stop-color="#E44600"/>
</linearGradient>
<linearGradient id="paint2_linear_245_5317" x1="40.8617" y1="113.268" x2="17.5734" y2="43.9259" gradientUnits="userSpaceOnUse">
<stop offset="0.1" stop-color="#00ADE5"/>
<stop offset="0.7" stop-color="#00A35E"/>
</linearGradient>
<linearGradient id="paint3_linear_245_5317" x1="87.1763" y1="108.438" x2="28.8327" y2="79.4323" gradientUnits="userSpaceOnUse">
<stop offset="0.1" stop-color="#864995"/>
<stop offset="0.7" stop-color="#0051A0"/>
</linearGradient>
<clipPath id="clip0_245_5317">
<rect width="247" height="112" fill="white"/>
</clipPath>
</defs>
</svg>
