<svg width="130" height="101" viewBox="0 0 130 101" fill="none" xmlns="http://www.w3.org/2000/svg">
<rect width="130" height="91" rx="8" fill="#F6F6F6"/>
<path opacity="0.2" d="M109.159 59.4058C109.159 57.3497 108.342 55.3777 106.888 53.9238C105.434 52.4698 103.462 51.6529 101.406 51.6529C100.388 51.653 99.3796 51.8536 98.439 52.2432C97.4984 52.6328 96.6437 53.2038 95.9238 53.9238C95.2038 54.6437 94.6328 55.4984 94.2432 56.439C93.8536 57.3796 93.653 58.3877 93.6529 59.4058C93.6529 60.424 93.8536 61.4325 94.2432 62.3731C94.6328 63.3137 95.2039 64.1684 95.9238 64.8883C96.6437 65.6082 97.4984 66.1793 98.439 66.5689C99.3796 66.9585 100.388 67.1591 101.406 67.1591C103.462 67.1591 105.434 66.3423 106.888 64.8883C108.342 63.4344 109.159 61.4621 109.159 59.4058ZM111.812 59.4058C111.812 61.7197 111.041 63.9539 109.641 65.7657L116.611 72.7358C117.13 73.2538 117.13 74.0935 116.611 74.6115C116.093 75.1295 115.254 75.1295 114.736 74.6115L107.766 67.6415C105.954 69.0407 103.72 69.8121 101.406 69.8121C100.039 69.8121 98.6863 69.5427 97.4238 69.0197C96.1613 68.4968 95.0143 67.7303 94.048 66.764C93.0818 65.7978 92.3149 64.6508 91.7919 63.3883C91.269 62.1258 91 60.7724 91 59.4058C91 58.0394 91.269 56.6863 91.7919 55.4238C92.3149 54.1613 93.0818 53.0143 94.048 52.048C95.0143 51.0818 96.1613 50.3149 97.4238 49.7919C98.6863 49.269 100.039 49 101.406 49C104.166 49 106.813 50.0965 108.764 52.048C110.715 53.9995 111.812 56.6461 111.812 59.4058Z" fill="#1E3A5F"/>
<path d="M66.9909 69.6404C67.3429 69.6404 67.6589 69.7284 67.9389 69.9044C68.2189 70.0724 68.4429 70.2964 68.6109 70.5764C68.7789 70.8564 68.8629 71.1724 68.8629 71.5244C68.8629 71.8684 68.7789 72.1844 68.6109 72.4724C68.4429 72.7524 68.2189 72.9764 67.9389 73.1444C67.6589 73.3124 67.3429 73.3964 66.9909 73.3964C66.6469 73.3964 66.3309 73.3124 66.0429 73.1444C65.7629 72.9764 65.5349 72.7524 65.3589 72.4724C65.1909 72.1844 65.1069 71.8684 65.1069 71.5244C65.1069 71.1724 65.1909 70.8564 65.3589 70.5764C65.5349 70.2964 65.7629 70.0724 66.0429 69.9044C66.3309 69.7284 66.6469 69.6404 66.9909 69.6404ZM66.9909 72.6764C67.3109 72.6764 67.5829 72.5644 67.8069 72.3404C68.0309 72.1164 68.1429 71.8444 68.1429 71.5244C68.1429 71.3084 68.0909 71.1164 67.9869 70.9484C67.8909 70.7724 67.7549 70.6324 67.5789 70.5284C67.4029 70.4244 67.2069 70.3724 66.9909 70.3724C66.7829 70.3724 66.5909 70.4244 66.4149 70.5284C66.2389 70.6324 66.0989 70.7724 65.9949 70.9484C65.8909 71.1164 65.8389 71.3084 65.8389 71.5244C65.8389 71.7324 65.8909 71.9284 65.9949 72.1124C66.0989 72.2884 66.2389 72.4284 66.4149 72.5324C66.5909 72.6284 66.7829 72.6764 66.9909 72.6764Z" fill="#1E3A5F"/>
<path d="M60.5264 63.0164C60.5184 63.0644 60.5064 63.1484 60.4904 63.2684C60.4824 63.3884 60.4744 63.5084 60.4664 63.6284C60.4584 63.7484 60.4544 63.8364 60.4544 63.8924C60.4464 64.0444 60.4384 64.2564 60.4304 64.5284C60.4304 64.7924 60.4304 65.0844 60.4304 65.4044C60.4304 65.7244 60.4304 66.0484 60.4304 66.3764C60.4384 66.6964 60.4424 67.0004 60.4424 67.2884C60.4504 67.5684 60.4544 67.8044 60.4544 67.9964L59.2904 67.5164C59.2904 67.3884 59.2904 67.2084 59.2904 66.9764C59.2904 66.7364 59.2864 66.4684 59.2784 66.1724C59.2784 65.8684 59.2744 65.5684 59.2664 65.2724C59.2664 64.9764 59.2624 64.7044 59.2544 64.4564C59.2544 64.2084 59.2504 64.0204 59.2424 63.8924C59.2264 63.7004 59.2064 63.5204 59.1824 63.3524C59.1664 63.1844 59.1544 63.0724 59.1464 63.0164H60.5264ZM53.9624 64.6124C54.3064 64.6044 54.6904 64.5964 55.1144 64.5884C55.5464 64.5804 56.0024 64.5724 56.4824 64.5644C56.9624 64.5484 57.4384 64.5364 57.9104 64.5284C58.3904 64.5124 58.8464 64.5044 59.2784 64.5044C59.7104 64.4964 60.0944 64.4924 60.4304 64.4924C60.7744 64.4924 61.1264 64.4924 61.4864 64.4924C61.8464 64.4924 62.1904 64.4924 62.5184 64.4924C62.8464 64.4924 63.1424 64.4924 63.4064 64.4924C63.6784 64.4924 63.8904 64.4924 64.0424 64.4924L64.0184 65.6204C63.6744 65.6044 63.2064 65.5924 62.6144 65.5844C62.0304 65.5684 61.2944 65.5604 60.4064 65.5604C59.8784 65.5604 59.3344 65.5644 58.7744 65.5724C58.2144 65.5804 57.6504 65.5964 57.0824 65.6204C56.5224 65.6364 55.9784 65.6564 55.4504 65.6804C54.9304 65.7044 54.4464 65.7324 53.9984 65.7644L53.9624 64.6124ZM60.3464 68.1164C60.3464 68.7084 60.2664 69.2004 60.1064 69.5924C59.9544 69.9764 59.7344 70.2684 59.4464 70.4684C59.1584 70.6604 58.8104 70.7564 58.4024 70.7564C58.1544 70.7564 57.9104 70.7124 57.6704 70.6244C57.4384 70.5364 57.2224 70.4044 57.0224 70.2284C56.8304 70.0444 56.6744 69.8244 56.5544 69.5684C56.4424 69.3044 56.3864 69.0044 56.3864 68.6684C56.3864 68.2444 56.4864 67.8724 56.6864 67.5524C56.8944 67.2244 57.1664 66.9684 57.5024 66.7844C57.8464 66.6004 58.2184 66.5084 58.6184 66.5084C59.1144 66.5084 59.5264 66.6204 59.8544 66.8444C60.1904 67.0684 60.4424 67.3724 60.6104 67.7564C60.7784 68.1324 60.8624 68.5604 60.8624 69.0404C60.8624 69.4324 60.8024 69.8404 60.6824 70.2644C60.5624 70.6804 60.3624 71.0844 60.0824 71.4764C59.8024 71.8684 59.4224 72.2284 58.9424 72.5564C58.4704 72.8764 57.8784 73.1404 57.1664 73.3484L56.1464 72.3404C56.6824 72.2284 57.1664 72.0804 57.5984 71.8964C58.0304 71.7044 58.4024 71.4724 58.7144 71.2004C59.0264 70.9204 59.2664 70.5924 59.4344 70.2164C59.6104 69.8324 59.6984 69.3884 59.6984 68.8844C59.6984 68.4044 59.5904 68.0564 59.3744 67.8404C59.1664 67.6244 58.9104 67.5164 58.6064 67.5164C58.4224 67.5164 58.2464 67.5604 58.0784 67.6484C57.9104 67.7364 57.7744 67.8644 57.6704 68.0324C57.5664 68.2004 57.5144 68.4044 57.5144 68.6444C57.5144 68.9804 57.6224 69.2444 57.8384 69.4364C58.0624 69.6204 58.3184 69.7124 58.6064 69.7124C58.8384 69.7124 59.0344 69.6484 59.1944 69.5204C59.3624 69.3844 59.4784 69.1764 59.5424 68.8964C59.6064 68.6084 59.5904 68.2444 59.4944 67.8044L60.3464 68.1164Z" fill="#1E3A5F"/>
<path d="M46.8543 62.9924C46.8463 63.1044 46.8343 63.2284 46.8183 63.3644C46.8103 63.4924 46.8023 63.6404 46.7943 63.8084C46.7863 63.9444 46.7783 64.1404 46.7703 64.3964C46.7703 64.6524 46.7663 64.9364 46.7583 65.2484C46.7583 65.5524 46.7583 65.8604 46.7583 66.1724C46.7583 66.4764 46.7583 66.7564 46.7583 67.0124C46.7583 67.3804 46.7663 67.7804 46.7823 68.2124C46.8063 68.6364 46.8303 69.0564 46.8543 69.4724C46.8783 69.8884 46.8983 70.2724 46.9143 70.6244C46.9383 70.9764 46.9503 71.2644 46.9503 71.4884C46.9503 71.7924 46.8743 72.0764 46.7223 72.3404C46.5703 72.6044 46.3303 72.8164 46.0023 72.9764C45.6743 73.1444 45.2463 73.2284 44.7183 73.2284C43.8143 73.2284 43.1263 73.0644 42.6543 72.7364C42.1823 72.4164 41.9463 71.9564 41.9463 71.3564C41.9463 70.9724 42.0583 70.6364 42.2823 70.3484C42.5143 70.0604 42.8423 69.8364 43.2663 69.6764C43.6983 69.5084 44.2103 69.4244 44.8023 69.4244C45.4423 69.4244 46.0423 69.4964 46.6023 69.6404C47.1703 69.7844 47.6863 69.9684 48.1503 70.1924C48.6223 70.4164 49.0383 70.6524 49.3983 70.9004C49.7583 71.1404 50.0623 71.3564 50.3103 71.5484L49.6143 72.6164C49.3343 72.3604 49.0183 72.1004 48.6663 71.8364C48.3143 71.5724 47.9263 71.3324 47.5023 71.1164C47.0783 70.9004 46.6263 70.7284 46.1463 70.6004C45.6743 70.4724 45.1743 70.4084 44.6463 70.4084C44.1343 70.4084 43.7423 70.4964 43.4703 70.6724C43.2063 70.8404 43.0743 71.0444 43.0743 71.2844C43.0743 71.4524 43.1263 71.6044 43.2303 71.7404C43.3423 71.8684 43.5063 71.9724 43.7223 72.0524C43.9383 72.1244 44.2183 72.1604 44.5623 72.1604C44.7863 72.1604 44.9863 72.1324 45.1623 72.0764C45.3463 72.0204 45.4903 71.9244 45.5943 71.7884C45.6983 71.6444 45.7503 71.4444 45.7503 71.1884C45.7503 70.9804 45.7423 70.7004 45.7263 70.3484C45.7103 69.9964 45.6943 69.6164 45.6783 69.2084C45.6703 68.7924 45.6583 68.3924 45.6423 68.0084C45.6263 67.6164 45.6183 67.2844 45.6183 67.0124C45.6183 66.7324 45.6183 66.4444 45.6183 66.1484C45.6263 65.8444 45.6303 65.5484 45.6303 65.2604C45.6303 64.9644 45.6303 64.6884 45.6303 64.4324C45.6303 64.1684 45.6303 63.9404 45.6303 63.7484C45.6303 63.6444 45.6263 63.5164 45.6183 63.3644C45.6103 63.2044 45.5943 63.0804 45.5703 62.9924H46.8543ZM42.1023 64.2164C42.3023 64.2484 42.5343 64.2804 42.7983 64.3124C43.0703 64.3444 43.3463 64.3764 43.6263 64.4084C43.9143 64.4324 44.1863 64.4524 44.4423 64.4684C44.6983 64.4764 44.9223 64.4804 45.1143 64.4804C45.9063 64.4804 46.7023 64.4524 47.5023 64.3964C48.3023 64.3404 49.1103 64.2444 49.9263 64.1084V65.2124C49.4943 65.2604 49.0143 65.3084 48.4863 65.3564C47.9583 65.4044 47.4063 65.4444 46.8303 65.4764C46.2623 65.5084 45.6943 65.5244 45.1263 65.5244C44.8623 65.5244 44.5423 65.5124 44.1663 65.4884C43.7983 65.4644 43.4303 65.4364 43.0623 65.4044C42.6943 65.3724 42.3783 65.3404 42.1143 65.3084L42.1023 64.2164ZM42.0423 66.7844C42.2423 66.8164 42.4743 66.8484 42.7383 66.8804C43.0023 66.9044 43.2743 66.9244 43.5543 66.9404C43.8343 66.9564 44.0983 66.9724 44.3463 66.9884C44.6023 66.9964 44.8223 67.0004 45.0063 67.0004C45.6543 67.0004 46.2623 66.9884 46.8303 66.9644C47.4063 66.9324 47.9583 66.8924 48.4863 66.8444C49.0223 66.7884 49.5423 66.7284 50.0463 66.6644L50.0343 67.7804C49.6263 67.8364 49.2263 67.8844 48.8343 67.9244C48.4423 67.9564 48.0463 67.9844 47.6463 68.0084C47.2543 68.0324 46.8383 68.0484 46.3983 68.0564C45.9663 68.0644 45.4943 68.0684 44.9823 68.0684C44.7343 68.0684 44.4343 68.0644 44.0823 68.0564C43.7303 68.0404 43.3743 68.0204 43.0143 67.9964C42.6543 67.9724 42.3343 67.9444 42.0543 67.9124L42.0423 66.7844Z" fill="#1E3A5F"/>
<path d="M27.3262 69.4004C27.4942 69.2724 27.6502 69.1404 27.7942 69.0044C27.9382 68.8684 28.0942 68.7124 28.2622 68.5364C28.4142 68.3844 28.5822 68.1964 28.7662 67.9724C28.9582 67.7484 29.1582 67.5044 29.3662 67.2404C29.5742 66.9764 29.7782 66.7164 29.9782 66.4604C30.1862 66.2044 30.3822 65.9724 30.5662 65.7644C30.9422 65.3164 31.3102 65.0764 31.6702 65.0444C32.0382 65.0044 32.4262 65.1924 32.8342 65.6084C33.0982 65.8644 33.3702 66.1604 33.6502 66.4964C33.9302 66.8244 34.2102 67.1524 34.4902 67.4804C34.7702 67.8084 35.0342 68.1084 35.2822 68.3804C35.4662 68.5804 35.6702 68.8044 35.8942 69.0524C36.1262 69.2924 36.3702 69.5444 36.6262 69.8084C36.8902 70.0644 37.1582 70.3284 37.4302 70.6004C37.7022 70.8644 37.9782 71.1204 38.2582 71.3684L37.2622 72.4724C36.9742 72.1924 36.6662 71.8804 36.3382 71.5364C36.0182 71.1844 35.7062 70.8324 35.4022 70.4804C35.0982 70.1204 34.8102 69.7884 34.5382 69.4844C34.2822 69.1884 34.0182 68.8764 33.7462 68.5484C33.4742 68.2204 33.2102 67.9044 32.9542 67.6004C32.7062 67.2964 32.4902 67.0444 32.3062 66.8444C32.1462 66.6604 32.0062 66.5484 31.8862 66.5084C31.7742 66.4604 31.6662 66.4684 31.5622 66.5324C31.4582 66.5964 31.3422 66.7124 31.2142 66.8804C31.0862 67.0404 30.9342 67.2324 30.7582 67.4564C30.5822 67.6804 30.3982 67.9164 30.2062 68.1644C30.0222 68.4044 29.8422 68.6444 29.6662 68.8844C29.4902 69.1164 29.3302 69.3204 29.1862 69.4964C29.0582 69.6724 28.9262 69.8604 28.7902 70.0604C28.6622 70.2524 28.5502 70.4204 28.4542 70.5644L27.3262 69.4004ZM35.2582 64.4204C35.3622 64.5724 35.4822 64.7644 35.6182 64.9964C35.7622 65.2204 35.9022 65.4524 36.0382 65.6924C36.1822 65.9324 36.3022 66.1484 36.3982 66.3404L35.5222 66.7244C35.4102 66.4924 35.2942 66.2644 35.1742 66.0404C35.0622 65.8164 34.9422 65.6004 34.8142 65.3924C34.6862 65.1764 34.5502 64.9724 34.4062 64.7804L35.2582 64.4204ZM36.8302 63.7844C36.9422 63.9364 37.0702 64.1244 37.2142 64.3484C37.3662 64.5724 37.5102 64.8044 37.6462 65.0444C37.7902 65.2764 37.9102 65.4844 38.0062 65.6684L37.1542 66.0764C37.0422 65.8444 36.9222 65.6204 36.7942 65.4044C36.6742 65.1804 36.5462 64.9644 36.4102 64.7564C36.2822 64.5484 36.1462 64.3524 36.0022 64.1684L36.8302 63.7844Z" fill="#1E3A5F"/>
<path d="M20.3143 65.0204H23.4583V65.8844H20.3143V65.0204ZM20.2183 66.8804H23.5903V67.7324H20.2183V66.8804ZM21.4183 64.0964H22.3183V67.3844H21.4183V64.0964ZM19.3183 62.9324H24.4423V63.9044H19.3183V62.9324ZM20.8063 68.5244H23.4103V71.6564H20.8063V70.8284H22.5583V69.3524H20.8063V68.5244ZM20.3623 68.5244H21.1903V72.1124H20.3623V68.5244ZM24.0223 62.9324H25.0783V72.2564C25.0783 72.5604 25.0423 72.8004 24.9703 72.9764C24.9063 73.1524 24.7823 73.2884 24.5983 73.3844C24.4143 73.4804 24.1703 73.5364 23.8663 73.5524C23.5703 73.5764 23.1983 73.5884 22.7503 73.5884C22.7343 73.4924 22.7103 73.3764 22.6783 73.2404C22.6463 73.1044 22.6063 72.9684 22.5583 72.8324C22.5183 72.6964 22.4743 72.5764 22.4263 72.4724C22.7143 72.4884 22.9903 72.4964 23.2543 72.4964C23.5263 72.4964 23.7063 72.4964 23.7943 72.4964C23.8823 72.4884 23.9423 72.4684 23.9743 72.4364C24.0063 72.4044 24.0223 72.3444 24.0223 72.2564V62.9324ZM18.7543 62.9324H19.7863V67.3244C19.7863 67.7964 19.7703 68.3084 19.7383 68.8604C19.7143 69.4124 19.6623 69.9764 19.5823 70.5524C19.5103 71.1204 19.4023 71.6724 19.2583 72.2084C19.1143 72.7444 18.9183 73.2324 18.6703 73.6724C18.6143 73.6084 18.5303 73.5324 18.4183 73.4444C18.3143 73.3644 18.2023 73.2884 18.0823 73.2164C17.9623 73.1444 17.8623 73.0884 17.7823 73.0484C18.0863 72.5044 18.3063 71.9004 18.4423 71.2364C18.5783 70.5724 18.6623 69.9004 18.6943 69.2204C18.7343 68.5404 18.7543 67.9084 18.7543 67.3244V62.9324ZM14.7703 66.1124H17.9023V66.9884H14.7703V66.1124ZM14.8423 62.8604H17.8663V63.7484H14.8423V62.8604ZM14.7703 67.7324H17.9023V68.6084H14.7703V67.7324ZM14.2783 64.4564H18.2023V65.3684H14.2783V64.4564ZM15.2863 69.3764H17.8903V72.9284H15.2863V72.0164H16.9543V70.2884H15.2863V69.3764ZM14.7463 69.3764H15.6463V73.4564H14.7463V69.3764Z" fill="#1E3A5F"/>
<path d="M81.804 58.3244C81.556 58.0204 81.28 57.7084 80.976 57.3884C80.68 57.0684 80.376 56.7604 80.064 56.4644C79.76 56.1684 79.468 55.9044 79.188 55.6724L80.172 54.8084C80.46 55.0404 80.764 55.3124 81.084 55.6244C81.404 55.9284 81.716 56.2444 82.02 56.5724C82.332 56.8924 82.6 57.1884 82.824 57.4604L81.804 58.3244Z" fill="#1E3A5F"/>
<path d="M71.2343 48.1844C71.2103 48.3044 71.1823 48.4404 71.1503 48.5924C71.1183 48.7444 71.0903 48.8844 71.0663 49.0124C71.0343 49.1724 70.9943 49.3724 70.9463 49.6124C70.9063 49.8444 70.8623 50.0884 70.8143 50.3444C70.7663 50.5924 70.7143 50.8324 70.6583 51.0644C70.5783 51.4004 70.4783 51.7884 70.3583 52.2284C70.2383 52.6684 70.0983 53.1404 69.9383 53.6444C69.7863 54.1404 69.6103 54.6484 69.4103 55.1684C69.2183 55.6804 69.0063 56.1844 68.7743 56.6804C68.5503 57.1684 68.3063 57.6244 68.0423 58.0484L66.8063 57.5564C67.0863 57.1804 67.3463 56.7644 67.5863 56.3084C67.8263 55.8444 68.0463 55.3684 68.2463 54.8804C68.4463 54.3844 68.6263 53.8964 68.7863 53.4164C68.9463 52.9364 69.0823 52.4924 69.1943 52.0844C69.3143 51.6684 69.4063 51.3124 69.4703 51.0164C69.5823 50.5044 69.6703 49.9924 69.7343 49.4804C69.8063 48.9684 69.8383 48.4884 69.8303 48.0404L71.2343 48.1844ZM75.3743 49.3964C75.5583 49.6444 75.7543 49.9564 75.9623 50.3324C76.1703 50.7084 76.3743 51.1084 76.5743 51.5324C76.7823 51.9564 76.9663 52.3644 77.1263 52.7564C77.2943 53.1484 77.4263 53.4844 77.5223 53.7644L76.3343 54.3164C76.2543 53.9964 76.1383 53.6364 75.9863 53.2364C75.8423 52.8284 75.6743 52.4164 75.4823 52.0004C75.2983 51.5844 75.0983 51.1924 74.8823 50.8244C74.6743 50.4484 74.4663 50.1324 74.2583 49.8764L75.3743 49.3964ZM66.6743 50.7404C66.8743 50.7484 67.0663 50.7524 67.2503 50.7524C67.4423 50.7524 67.6383 50.7484 67.8383 50.7404C68.0303 50.7324 68.2663 50.7204 68.5463 50.7044C68.8263 50.6804 69.1263 50.6564 69.4463 50.6324C69.7743 50.6004 70.0983 50.5724 70.4183 50.5484C70.7463 50.5164 71.0463 50.4924 71.3183 50.4764C71.5903 50.4604 71.8103 50.4524 71.9783 50.4524C72.3703 50.4524 72.7183 50.5164 73.0223 50.6444C73.3263 50.7644 73.5663 50.9804 73.7423 51.2924C73.9263 51.6044 74.0183 52.0404 74.0183 52.6004C74.0183 53.0724 73.9983 53.5844 73.9583 54.1364C73.9183 54.6804 73.8463 55.2044 73.7423 55.7084C73.6463 56.2044 73.5103 56.6204 73.3343 56.9564C73.1423 57.3724 72.8903 57.6484 72.5783 57.7844C72.2743 57.9284 71.9103 58.0004 71.4863 58.0004C71.2623 58.0004 71.0183 57.9844 70.7543 57.9524C70.4903 57.9204 70.2583 57.8804 70.0583 57.8324L69.8663 56.5844C70.0263 56.6244 70.1983 56.6644 70.3823 56.7044C70.5743 56.7444 70.7543 56.7764 70.9223 56.8004C71.0903 56.8164 71.2263 56.8244 71.3303 56.8244C71.5463 56.8244 71.7343 56.7884 71.8943 56.7164C72.0623 56.6364 72.2023 56.4804 72.3143 56.2484C72.4343 56.0004 72.5343 55.6804 72.6143 55.2884C72.6943 54.8964 72.7543 54.4764 72.7943 54.0284C72.8343 53.5804 72.8543 53.1484 72.8543 52.7324C72.8543 52.3804 72.8023 52.1204 72.6983 51.9524C72.6023 51.7844 72.4623 51.6724 72.2783 51.6164C72.0943 51.5524 71.8783 51.5204 71.6303 51.5204C71.4383 51.5204 71.1743 51.5364 70.8383 51.5684C70.5103 51.5924 70.1583 51.6244 69.7823 51.6644C69.4063 51.7044 69.0583 51.7444 68.7383 51.7844C68.4183 51.8164 68.1663 51.8444 67.9823 51.8684C67.8303 51.8844 67.6343 51.9084 67.3943 51.9404C67.1623 51.9724 66.9623 52.0044 66.7943 52.0364L66.6743 50.7404Z" fill="#1E3A5F"/>
<path d="M55.6183 48.6164C55.7703 48.6324 55.9303 48.6444 56.0983 48.6524C56.2743 48.6604 56.4343 48.6644 56.5783 48.6644C56.6983 48.6644 56.8903 48.6644 57.1543 48.6644C57.4263 48.6564 57.7303 48.6484 58.0663 48.6404C58.4103 48.6324 58.7503 48.6244 59.0863 48.6164C59.4223 48.6004 59.7223 48.5844 59.9863 48.5684C60.2583 48.5524 60.4583 48.5404 60.5863 48.5324C60.8023 48.5164 60.9663 48.5004 61.0783 48.4844C61.1983 48.4684 61.2903 48.4484 61.3543 48.4244L62.0143 49.2884C61.8943 49.3684 61.7703 49.4484 61.6423 49.5284C61.5143 49.6084 61.3863 49.7004 61.2583 49.8044C61.1063 49.9164 60.9063 50.0724 60.6583 50.2724C60.4183 50.4644 60.1583 50.6804 59.8783 50.9204C59.5983 51.1524 59.3223 51.3804 59.0503 51.6044C58.7783 51.8284 58.5343 52.0284 58.3183 52.2044C58.5583 52.1244 58.7983 52.0724 59.0383 52.0484C59.2783 52.0164 59.5183 52.0004 59.7583 52.0004C60.4223 52.0004 61.0183 52.1284 61.5463 52.3844C62.0743 52.6404 62.4903 52.9844 62.7943 53.4164C63.0983 53.8484 63.2503 54.3484 63.2503 54.9164C63.2503 55.5484 63.0823 56.1124 62.7463 56.6084C62.4183 57.1044 61.9383 57.4924 61.3063 57.7724C60.6823 58.0524 59.9223 58.1924 59.0263 58.1924C58.4743 58.1924 57.9903 58.1164 57.5743 57.9644C57.1583 57.8124 56.8343 57.6004 56.6023 57.3284C56.3783 57.0484 56.2663 56.7284 56.2663 56.3684C56.2663 56.0724 56.3463 55.7964 56.5063 55.5404C56.6743 55.2764 56.9063 55.0684 57.2023 54.9164C57.5063 54.7564 57.8543 54.6764 58.2463 54.6764C58.7903 54.6764 59.2423 54.7884 59.6023 55.0124C59.9703 55.2284 60.2503 55.5164 60.4423 55.8764C60.6423 56.2364 60.7503 56.6284 60.7663 57.0524L59.6743 57.2084C59.6503 56.7284 59.5103 56.3364 59.2543 56.0324C59.0063 55.7284 58.6703 55.5764 58.2463 55.5764C57.9903 55.5764 57.7783 55.6444 57.6103 55.7804C57.4503 55.9164 57.3703 56.0764 57.3703 56.2604C57.3703 56.5244 57.5023 56.7324 57.7663 56.8844C58.0383 57.0364 58.3863 57.1124 58.8103 57.1124C59.4903 57.1124 60.0703 57.0284 60.5503 56.8604C61.0303 56.6844 61.3943 56.4324 61.6423 56.1044C61.8903 55.7684 62.0143 55.3644 62.0143 54.8924C62.0143 54.5164 61.9023 54.1804 61.6783 53.8844C61.4543 53.5884 61.1463 53.3604 60.7543 53.2004C60.3623 53.0324 59.9143 52.9484 59.4103 52.9484C58.9303 52.9484 58.4903 53.0044 58.0903 53.1164C57.6983 53.2204 57.3303 53.3764 56.9863 53.5844C56.6423 53.7844 56.3023 54.0364 55.9663 54.3404C55.6383 54.6364 55.2983 54.9764 54.9463 55.3604L54.0703 54.4724C54.3103 54.2804 54.5743 54.0644 54.8623 53.8244C55.1503 53.5844 55.4383 53.3444 55.7263 53.1044C56.0223 52.8564 56.2983 52.6244 56.5543 52.4084C56.8183 52.1844 57.0383 52.0004 57.2143 51.8564C57.3823 51.7204 57.5863 51.5564 57.8263 51.3644C58.0663 51.1644 58.3143 50.9564 58.5703 50.7404C58.8263 50.5244 59.0703 50.3204 59.3023 50.1284C59.5343 49.9284 59.7263 49.7604 59.8783 49.6244C59.7503 49.6324 59.5743 49.6404 59.3503 49.6484C59.1263 49.6564 58.8783 49.6684 58.6063 49.6844C58.3423 49.6924 58.0743 49.7044 57.8023 49.7204C57.5303 49.7284 57.2823 49.7404 57.0583 49.7564C56.8343 49.7644 56.6623 49.7724 56.5423 49.7804C56.3983 49.7884 56.2463 49.8004 56.0863 49.8164C55.9343 49.8244 55.7903 49.8364 55.6543 49.8524L55.6183 48.6164Z" fill="#1E3A5F"/>
<path d="M48.8703 48.2684C48.8623 48.3324 48.8543 48.4204 48.8463 48.5324C48.8383 48.6444 48.8303 48.7604 48.8223 48.8804C48.8143 49.0004 48.8103 49.1124 48.8103 49.2164C48.8023 49.4644 48.7983 49.7164 48.7983 49.9724C48.7983 50.2284 48.7943 50.4764 48.7863 50.7164C48.7863 50.9484 48.7823 51.1684 48.7743 51.3764C48.7663 51.6964 48.7543 52.0444 48.7383 52.4204C48.7223 52.7964 48.7023 53.1484 48.6783 53.4764C48.6543 53.8044 48.6223 54.0724 48.5823 54.2804C48.5263 54.5684 48.4223 54.7644 48.2703 54.8684C48.1183 54.9644 47.8983 55.0124 47.6103 55.0124C47.4663 55.0124 47.2823 55.0044 47.0583 54.9884C46.8423 54.9644 46.6303 54.9404 46.4223 54.9164C46.2143 54.8844 46.0503 54.8564 45.9303 54.8324L45.9543 53.7884C46.1543 53.8284 46.3623 53.8644 46.5783 53.8964C46.8023 53.9284 46.9783 53.9444 47.1063 53.9444C47.2423 53.9444 47.3423 53.9244 47.4063 53.8844C47.4783 53.8444 47.5183 53.7604 47.5263 53.6324C47.5583 53.4804 47.5783 53.2804 47.5863 53.0324C47.6023 52.7844 47.6183 52.5164 47.6343 52.2284C47.6503 51.9324 47.6583 51.6484 47.6583 51.3764C47.6663 51.1524 47.6703 50.9244 47.6703 50.6924C47.6703 50.4524 47.6703 50.2084 47.6703 49.9604C47.6703 49.7124 47.6703 49.4764 47.6703 49.2524C47.6703 49.1564 47.6623 49.0484 47.6463 48.9284C47.6383 48.8004 47.6303 48.6764 47.6223 48.5564C47.6143 48.4364 47.6023 48.3404 47.5863 48.2684H48.8703ZM44.1303 48.6404C44.1143 48.8004 44.0983 48.9684 44.0823 49.1444C44.0743 49.3204 44.0703 49.5164 44.0703 49.7324C44.0703 49.9644 44.0663 50.2724 44.0583 50.6564C44.0583 51.0324 44.0543 51.4404 44.0463 51.8804C44.0463 52.3124 44.0463 52.7404 44.0463 53.1644C44.0463 53.5884 44.0463 53.9684 44.0463 54.3044C44.0463 54.6404 44.0503 54.9004 44.0583 55.0844C44.0663 55.3964 44.0863 55.6564 44.1183 55.8644C44.1503 56.0724 44.2303 56.2364 44.3583 56.3564C44.4863 56.4764 44.6863 56.5644 44.9583 56.6204C45.2383 56.6764 45.6183 56.7044 46.0983 56.7044C46.5143 56.7044 46.9463 56.6924 47.3943 56.6684C47.8423 56.6364 48.2663 56.5964 48.6663 56.5484C49.0663 56.5004 49.4023 56.4524 49.6743 56.4044L49.6383 57.6884C49.3743 57.7204 49.0463 57.7484 48.6543 57.7724C48.2623 57.8044 47.8503 57.8324 47.4183 57.8564C46.9863 57.8804 46.5703 57.8924 46.1703 57.8924C45.4423 57.8924 44.8623 57.8484 44.4303 57.7604C43.9983 57.6724 43.6743 57.5284 43.4583 57.3284C43.2423 57.1204 43.0983 56.8484 43.0263 56.5124C42.9543 56.1764 42.9103 55.7604 42.8943 55.2644C42.8943 55.0884 42.8903 54.8524 42.8823 54.5564C42.8823 54.2524 42.8823 53.9124 42.8823 53.5364C42.8823 53.1524 42.8823 52.7644 42.8823 52.3724C42.8823 51.9804 42.8823 51.6084 42.8823 51.2564C42.8823 50.9044 42.8823 50.6004 42.8823 50.3444C42.8823 50.0804 42.8823 49.8964 42.8823 49.7924C42.8823 49.5764 42.8743 49.3804 42.8583 49.2044C42.8503 49.0204 42.8303 48.8324 42.7983 48.6404H44.1303ZM40.3623 51.4364C40.5383 51.4364 40.7423 51.4324 40.9743 51.4244C41.2143 51.4084 41.4623 51.3884 41.7183 51.3644C41.9743 51.3404 42.3423 51.3044 42.8223 51.2564C43.3023 51.2084 43.8463 51.1564 44.4543 51.1004C45.0703 51.0444 45.7063 50.9884 46.3623 50.9324C47.0263 50.8684 47.6663 50.8124 48.2823 50.7644C48.8983 50.7164 49.4463 50.6764 49.9263 50.6444C50.0863 50.6364 50.2583 50.6284 50.4423 50.6204C50.6263 50.6044 50.7983 50.5884 50.9583 50.5724V51.7484C50.8943 51.7404 50.7983 51.7404 50.6703 51.7484C50.5503 51.7484 50.4183 51.7484 50.2743 51.7484C50.1383 51.7484 50.0183 51.7524 49.9143 51.7604C49.6023 51.7604 49.2183 51.7764 48.7623 51.8084C48.3063 51.8404 47.8183 51.8804 47.2983 51.9284C46.7783 51.9684 46.2463 52.0164 45.7023 52.0724C45.1583 52.1204 44.6343 52.1724 44.1303 52.2284C43.6343 52.2764 43.1823 52.3244 42.7743 52.3724C42.3663 52.4124 42.0423 52.4484 41.8023 52.4804C41.6743 52.4964 41.5263 52.5164 41.3583 52.5404C41.1983 52.5564 41.0383 52.5764 40.8783 52.6004C40.7263 52.6244 40.5983 52.6444 40.4943 52.6604L40.3623 51.4364Z" fill="#1E3A5F"/>
<path d="M31.2984 50.5124C31.6424 50.5444 31.9824 50.5724 32.3184 50.5964C32.6544 50.6124 32.9984 50.6204 33.3504 50.6204C34.0864 50.6204 34.8144 50.5884 35.5344 50.5244C36.2544 50.4604 36.9184 50.3684 37.5264 50.2484V51.4124C36.8944 51.5164 36.2184 51.5924 35.4984 51.6404C34.7784 51.6884 34.0624 51.7164 33.3504 51.7244C33.0064 51.7244 32.6664 51.7164 32.3304 51.7004C31.9944 51.6844 31.6504 51.6644 31.2984 51.6404V50.5124ZM35.6544 48.4124C35.6304 48.5324 35.6104 48.6564 35.5944 48.7844C35.5864 48.9124 35.5784 49.0364 35.5704 49.1564C35.5624 49.3004 35.5544 49.4844 35.5464 49.7084C35.5464 49.9244 35.5424 50.1644 35.5344 50.4284C35.5344 50.6844 35.5344 50.9404 35.5344 51.1964C35.5344 51.7004 35.5424 52.1844 35.5584 52.6484C35.5824 53.1124 35.6064 53.5524 35.6304 53.9684C35.6544 54.3844 35.6744 54.7764 35.6904 55.1444C35.7144 55.5044 35.7264 55.8324 35.7264 56.1284C35.7264 56.4084 35.6864 56.6724 35.6064 56.9204C35.5344 57.1604 35.4144 57.3764 35.2464 57.5684C35.0784 57.7604 34.8544 57.9084 34.5744 58.0124C34.2944 58.1244 33.9464 58.1804 33.5304 58.1804C32.7144 58.1804 32.0784 58.0204 31.6224 57.7004C31.1744 57.3804 30.9504 56.9324 30.9504 56.3564C30.9504 55.9884 31.0504 55.6604 31.2504 55.3724C31.4584 55.0844 31.7504 54.8564 32.1264 54.6884C32.5104 54.5204 32.9704 54.4364 33.5064 54.4364C34.0344 54.4364 34.5224 54.4964 34.9704 54.6164C35.4184 54.7364 35.8264 54.8924 36.1944 55.0844C36.5624 55.2764 36.8984 55.4884 37.2024 55.7204C37.5064 55.9524 37.7824 56.1764 38.0304 56.3924L37.3824 57.4004C36.9424 56.9844 36.5104 56.6244 36.0864 56.3204C35.6624 56.0164 35.2304 55.7804 34.7904 55.6124C34.3504 55.4444 33.8904 55.3604 33.4104 55.3604C33.0104 55.3604 32.6824 55.4404 32.4264 55.6004C32.1784 55.7604 32.0544 55.9724 32.0544 56.2364C32.0544 56.5084 32.1744 56.7164 32.4144 56.8604C32.6624 56.9964 32.9784 57.0644 33.3624 57.0644C33.6584 57.0644 33.8904 57.0164 34.0584 56.9204C34.2264 56.8244 34.3464 56.6884 34.4184 56.5124C34.4904 56.3284 34.5264 56.1084 34.5264 55.8524C34.5264 55.6444 34.5184 55.3644 34.5024 55.0124C34.4864 54.6524 34.4664 54.2604 34.4424 53.8364C34.4264 53.4044 34.4104 52.9644 34.3944 52.5164C34.3784 52.0604 34.3704 51.6244 34.3704 51.2084C34.3704 50.7764 34.3664 50.3804 34.3584 50.0204C34.3584 49.6524 34.3584 49.3724 34.3584 49.1804C34.3584 49.0844 34.3504 48.9604 34.3344 48.8084C34.3264 48.6564 34.3144 48.5244 34.2984 48.4124H35.6544ZM29.7624 48.5204C29.7384 48.5924 29.7064 48.6884 29.6664 48.8084C29.6344 48.9204 29.6024 49.0364 29.5704 49.1564C29.5464 49.2764 29.5264 49.3724 29.5104 49.4444C29.4704 49.6444 29.4224 49.8924 29.3664 50.1884C29.3184 50.4844 29.2664 50.8124 29.2104 51.1724C29.1624 51.5244 29.1144 51.8844 29.0664 52.2524C29.0264 52.6204 28.9944 52.9724 28.9704 53.3084C28.9464 53.6444 28.9344 53.9404 28.9344 54.1964C28.9344 54.4044 28.9384 54.6164 28.9464 54.8324C28.9624 55.0404 28.9864 55.2564 29.0184 55.4804C29.0744 55.3124 29.1384 55.1404 29.2104 54.9644C29.2824 54.7884 29.3544 54.6124 29.4264 54.4364C29.5064 54.2604 29.5784 54.0964 29.6424 53.9444L30.2424 54.4124C30.1384 54.7164 30.0264 55.0444 29.9064 55.3964C29.7944 55.7404 29.6864 56.0684 29.5824 56.3804C29.4864 56.6924 29.4184 56.9524 29.3784 57.1604C29.3624 57.2404 29.3464 57.3364 29.3304 57.4484C29.3224 57.5524 29.3184 57.6404 29.3184 57.7124C29.3264 57.7684 29.3304 57.8364 29.3304 57.9164C29.3304 58.0044 29.3344 58.0884 29.3424 58.1684L28.2864 58.2404C28.1664 57.8164 28.0584 57.2804 27.9624 56.6324C27.8664 55.9764 27.8184 55.2404 27.8184 54.4244C27.8184 53.9844 27.8384 53.5204 27.8784 53.0324C27.9184 52.5444 27.9664 52.0724 28.0224 51.6164C28.0864 51.1524 28.1464 50.7284 28.2024 50.3444C28.2664 49.9524 28.3144 49.6364 28.3464 49.3964C28.3704 49.2444 28.3904 49.0804 28.4064 48.9044C28.4224 48.7284 28.4344 48.5604 28.4424 48.4004L29.7624 48.5204ZM36.6624 47.9924C36.7424 48.1364 36.8224 48.3084 36.9024 48.5084C36.9824 48.7084 37.0624 48.9084 37.1424 49.1084C37.2224 49.3084 37.2904 49.4884 37.3464 49.6484L36.6264 49.8884C36.5704 49.7124 36.5064 49.5244 36.4344 49.3244C36.3624 49.1244 36.2864 48.9284 36.2064 48.7364C36.1344 48.5364 36.0584 48.3564 35.9784 48.1964L36.6624 47.9924ZM37.8864 47.6084C37.9664 47.7604 38.0464 47.9364 38.1264 48.1364C38.2144 48.3284 38.2984 48.5244 38.3784 48.7244C38.4584 48.9244 38.5264 49.1044 38.5824 49.2644L37.8744 49.4924C37.7864 49.2284 37.6824 48.9444 37.5624 48.6404C37.4424 48.3364 37.3184 48.0684 37.1904 47.8364L37.8864 47.6084Z" fill="#1E3A5F"/>
<path d="M20.8662 47.5124H21.9822V58.5884H20.8662V47.5124ZM17.7582 49.3604H25.1982V55.7804H24.0822V50.3924H18.8262V55.8764H17.7582V49.3604ZM18.4902 51.7964H24.5862V52.7924H18.4902V51.7964ZM18.5262 54.2204H24.6222V55.2524H18.5262V54.2204ZM16.8822 47.5124L17.9622 47.8364C17.6982 48.5164 17.3902 49.1924 17.0382 49.8644C16.6862 50.5364 16.3062 51.1684 15.8982 51.7604C15.4902 52.3524 15.0702 52.8764 14.6382 53.3324C14.5982 53.2364 14.5422 53.1164 14.4702 52.9724C14.3982 52.8284 14.3182 52.6804 14.2302 52.5284C14.1502 52.3764 14.0782 52.2604 14.0142 52.1804C14.3982 51.7964 14.7662 51.3564 15.1182 50.8604C15.4782 50.3564 15.8102 49.8204 16.1142 49.2524C16.4182 48.6764 16.6742 48.0964 16.8822 47.5124ZM15.6822 50.6924L16.7502 49.6244L16.7622 49.6364V58.5884H15.6822V50.6924Z" fill="#1E3A5F"/>
<path d="M79.563 34.5524C79.795 34.5444 80.007 34.5364 80.199 34.5284C80.399 34.5124 80.559 34.5004 80.679 34.4924C80.895 34.4684 81.183 34.4404 81.543 34.4084C81.911 34.3684 82.327 34.3284 82.791 34.2884C83.255 34.2484 83.751 34.2044 84.279 34.1564C84.807 34.1084 85.347 34.0604 85.899 34.0124C86.323 33.9804 86.735 33.9524 87.135 33.9284C87.543 33.8964 87.923 33.8724 88.275 33.8564C88.627 33.8324 88.939 33.8164 89.211 33.8084V35.0204C88.987 35.0124 88.731 35.0124 88.443 35.0204C88.163 35.0284 87.883 35.0444 87.603 35.0684C87.331 35.0924 87.087 35.1324 86.871 35.1884C86.479 35.3084 86.119 35.4964 85.791 35.7524C85.463 36.0084 85.179 36.3044 84.939 36.6404C84.707 36.9764 84.527 37.3324 84.399 37.7084C84.279 38.0844 84.219 38.4484 84.219 38.8004C84.219 39.2404 84.291 39.6244 84.435 39.9524C84.587 40.2724 84.795 40.5484 85.059 40.7804C85.323 41.0044 85.627 41.1924 85.971 41.3444C86.315 41.4884 86.679 41.5964 87.063 41.6684C87.455 41.7404 87.847 41.7844 88.239 41.8004L87.807 43.0844C87.335 43.0604 86.867 42.9884 86.403 42.8684C85.939 42.7564 85.503 42.5964 85.095 42.3884C84.687 42.1724 84.323 41.9044 84.003 41.5844C83.691 41.2644 83.443 40.8964 83.259 40.4804C83.083 40.0644 82.995 39.5924 82.995 39.0644C82.995 38.4564 83.095 37.8964 83.295 37.3844C83.503 36.8724 83.763 36.4284 84.075 36.0524C84.387 35.6684 84.707 35.3724 85.035 35.1644C84.795 35.1884 84.499 35.2204 84.147 35.2604C83.795 35.2924 83.415 35.3324 83.007 35.3804C82.607 35.4284 82.203 35.4804 81.795 35.5364C81.387 35.5844 80.999 35.6364 80.631 35.6924C80.271 35.7484 79.955 35.8044 79.683 35.8604L79.563 34.5524ZM87.483 36.3524C87.579 36.4884 87.687 36.6564 87.807 36.8564C87.927 37.0484 88.047 37.2484 88.167 37.4564C88.287 37.6564 88.387 37.8404 88.467 38.0084L87.723 38.3444C87.579 38.0404 87.427 37.7484 87.267 37.4684C87.115 37.1884 86.947 36.9204 86.763 36.6644L87.483 36.3524ZM88.815 35.8364C88.911 35.9724 89.023 36.1364 89.151 36.3284C89.279 36.5124 89.403 36.7044 89.523 36.9044C89.643 37.1044 89.747 37.2924 89.835 37.4684L89.103 37.8164C88.943 37.5124 88.783 37.2284 88.623 36.9644C88.463 36.6924 88.287 36.4244 88.095 36.1604L88.815 35.8364Z" fill="#1E3A5F"/>
<path d="M72.659 32.9924C72.651 33.1044 72.639 33.2284 72.623 33.3644C72.615 33.4924 72.607 33.6404 72.599 33.8084C72.591 33.9444 72.583 34.1404 72.575 34.3964C72.575 34.6524 72.571 34.9364 72.563 35.2484C72.563 35.5524 72.563 35.8604 72.563 36.1724C72.563 36.4764 72.563 36.7564 72.563 37.0124C72.563 37.3804 72.571 37.7804 72.587 38.2124C72.611 38.6364 72.635 39.0564 72.659 39.4724C72.683 39.8884 72.703 40.2724 72.719 40.6244C72.743 40.9764 72.755 41.2644 72.755 41.4884C72.755 41.7924 72.679 42.0764 72.527 42.3404C72.375 42.6044 72.135 42.8164 71.807 42.9764C71.479 43.1444 71.051 43.2284 70.523 43.2284C69.619 43.2284 68.931 43.0644 68.459 42.7364C67.987 42.4164 67.751 41.9564 67.751 41.3564C67.751 40.9724 67.863 40.6364 68.087 40.3484C68.319 40.0604 68.647 39.8364 69.071 39.6764C69.503 39.5084 70.015 39.4244 70.607 39.4244C71.247 39.4244 71.847 39.4964 72.407 39.6404C72.975 39.7844 73.491 39.9684 73.955 40.1924C74.427 40.4164 74.843 40.6524 75.203 40.9004C75.563 41.1404 75.867 41.3564 76.115 41.5484L75.419 42.6164C75.139 42.3604 74.823 42.1004 74.471 41.8364C74.119 41.5724 73.731 41.3324 73.307 41.1164C72.883 40.9004 72.431 40.7284 71.951 40.6004C71.479 40.4724 70.979 40.4084 70.451 40.4084C69.939 40.4084 69.547 40.4964 69.275 40.6724C69.011 40.8404 68.879 41.0444 68.879 41.2844C68.879 41.4524 68.931 41.6044 69.035 41.7404C69.147 41.8684 69.311 41.9724 69.527 42.0524C69.743 42.1244 70.023 42.1604 70.367 42.1604C70.591 42.1604 70.791 42.1324 70.967 42.0764C71.151 42.0204 71.295 41.9244 71.399 41.7884C71.503 41.6444 71.555 41.4444 71.555 41.1884C71.555 40.9804 71.547 40.7004 71.531 40.3484C71.515 39.9964 71.499 39.6164 71.483 39.2084C71.475 38.7924 71.463 38.3924 71.447 38.0084C71.431 37.6164 71.423 37.2844 71.423 37.0124C71.423 36.7324 71.423 36.4444 71.423 36.1484C71.431 35.8444 71.435 35.5484 71.435 35.2604C71.435 34.9644 71.435 34.6884 71.435 34.4324C71.435 34.1684 71.435 33.9404 71.435 33.7484C71.435 33.6444 71.431 33.5164 71.423 33.3644C71.415 33.2044 71.399 33.0804 71.375 32.9924H72.659ZM67.907 34.2164C68.107 34.2484 68.339 34.2804 68.603 34.3124C68.875 34.3444 69.151 34.3764 69.431 34.4084C69.719 34.4324 69.991 34.4524 70.247 34.4684C70.503 34.4764 70.727 34.4804 70.919 34.4804C71.711 34.4804 72.507 34.4524 73.307 34.3964C74.107 34.3404 74.915 34.2444 75.731 34.1084V35.2124C75.299 35.2604 74.819 35.3084 74.291 35.3564C73.763 35.4044 73.211 35.4444 72.635 35.4764C72.067 35.5084 71.499 35.5244 70.931 35.5244C70.667 35.5244 70.347 35.5124 69.971 35.4884C69.603 35.4644 69.235 35.4364 68.867 35.4044C68.499 35.3724 68.183 35.3404 67.919 35.3084L67.907 34.2164ZM67.847 36.7844C68.047 36.8164 68.279 36.8484 68.543 36.8804C68.807 36.9044 69.079 36.9244 69.359 36.9404C69.639 36.9564 69.903 36.9724 70.151 36.9884C70.407 36.9964 70.627 37.0004 70.811 37.0004C71.459 37.0004 72.067 36.9884 72.635 36.9644C73.211 36.9324 73.763 36.8924 74.291 36.8444C74.827 36.7884 75.347 36.7284 75.851 36.6644L75.839 37.7804C75.431 37.8364 75.031 37.8844 74.639 37.9244C74.247 37.9564 73.851 37.9844 73.451 38.0084C73.059 38.0324 72.643 38.0484 72.203 38.0564C71.771 38.0644 71.299 38.0684 70.787 38.0684C70.539 38.0684 70.239 38.0644 69.887 38.0564C69.535 38.0404 69.179 38.0204 68.819 37.9964C68.459 37.9724 68.139 37.9444 67.859 37.9124L67.847 36.7844Z" fill="#1E3A5F"/>
<path d="M55.3869 34.0364C55.8269 34.0924 56.3189 34.1324 56.8629 34.1564C57.4149 34.1804 57.9949 34.1924 58.6029 34.1924C58.9949 34.1924 59.3909 34.1844 59.7909 34.1684C60.1909 34.1524 60.5749 34.1324 60.9429 34.1084C61.3189 34.0764 61.6549 34.0484 61.9509 34.0244V35.2724C61.6789 35.2964 61.3509 35.3204 60.9669 35.3444C60.5909 35.3684 60.1989 35.3884 59.7909 35.4044C59.3829 35.4124 58.9909 35.4164 58.6149 35.4164C57.9989 35.4164 57.4269 35.4044 56.8989 35.3804C56.3709 35.3484 55.8669 35.3164 55.3869 35.2844V34.0364ZM56.1069 38.9804C56.0349 39.2044 55.9789 39.4244 55.9389 39.6404C55.8989 39.8564 55.8789 40.0684 55.8789 40.2764C55.8789 40.7004 56.0949 41.0484 56.5269 41.3204C56.9669 41.5924 57.6429 41.7284 58.5549 41.7284C59.1069 41.7284 59.6349 41.7084 60.1389 41.6684C60.6509 41.6284 61.1269 41.5724 61.5669 41.5004C62.0069 41.4284 62.3869 41.3444 62.7069 41.2484L62.7189 42.5684C62.4069 42.6484 62.0349 42.7204 61.6029 42.7844C61.1789 42.8484 60.7109 42.8964 60.1989 42.9284C59.6949 42.9684 59.1629 42.9884 58.6029 42.9884C57.7469 42.9884 57.0229 42.8924 56.4309 42.7004C55.8389 42.5164 55.3909 42.2444 55.0869 41.8844C54.7829 41.5244 54.6309 41.0844 54.6309 40.5644C54.6309 40.2364 54.6589 39.9324 54.7149 39.6524C54.7709 39.3644 54.8229 39.1044 54.8709 38.8724L56.1069 38.9804Z" fill="#1E3A5F"/>
<path d="M49.2181 35.8364C49.0661 35.9324 48.9021 36.0284 48.7261 36.1244C48.5581 36.2124 48.3781 36.3044 48.1861 36.4004C47.9221 36.5284 47.6141 36.6804 47.2621 36.8564C46.9181 37.0324 46.5501 37.2284 46.1581 37.4444C45.7741 37.6524 45.3901 37.8804 45.0061 38.1284C44.4781 38.4724 44.0581 38.8364 43.7461 39.2204C43.4341 39.5964 43.2781 40.0044 43.2781 40.4444C43.2781 40.9164 43.5021 41.2844 43.9501 41.5484C44.3981 41.8124 45.0701 41.9444 45.9661 41.9444C46.3981 41.9444 46.8501 41.9284 47.3221 41.8964C47.7941 41.8564 48.2501 41.8044 48.6901 41.7404C49.1301 41.6684 49.5141 41.5964 49.8421 41.5244L49.8301 42.8804C49.5181 42.9364 49.1621 42.9844 48.7621 43.0244C48.3621 43.0724 47.9301 43.1084 47.4661 43.1324C47.0101 43.1644 46.5261 43.1804 46.0141 43.1804C45.4381 43.1804 44.9021 43.1324 44.4061 43.0364C43.9181 42.9484 43.4941 42.8004 43.1341 42.5924C42.7741 42.3924 42.4941 42.1284 42.2941 41.8004C42.0941 41.4724 41.9941 41.0684 41.9941 40.5884C41.9941 40.1164 42.0941 39.6844 42.2941 39.2924C42.4941 38.9004 42.7741 38.5364 43.1341 38.2004C43.4941 37.8564 43.9101 37.5284 44.3821 37.2164C44.7821 36.9524 45.1821 36.7084 45.5821 36.4844C45.9901 36.2604 46.3741 36.0564 46.7341 35.8724C47.0941 35.6804 47.3981 35.5124 47.6461 35.3684C47.8461 35.2564 48.0221 35.1524 48.1741 35.0564C48.3261 34.9524 48.4741 34.8444 48.6181 34.7324L49.2181 35.8364ZM43.5061 33.3164C43.6981 33.8364 43.9021 34.3444 44.1181 34.8404C44.3341 35.3284 44.5501 35.7844 44.7661 36.2084C44.9901 36.6324 45.1941 37.0084 45.3781 37.3364L44.3221 37.9604C44.1141 37.6164 43.8941 37.2204 43.6621 36.7724C43.4381 36.3164 43.2101 35.8364 42.9781 35.3324C42.7541 34.8284 42.5341 34.3244 42.3181 33.8204L43.5061 33.3164ZM49.3981 33.1724C49.5021 33.3164 49.6101 33.4884 49.7221 33.6884C49.8421 33.8884 49.9581 34.0884 50.0701 34.2884C50.1901 34.4884 50.2861 34.6684 50.3581 34.8284L49.5781 35.1764C49.4581 34.9284 49.3061 34.6444 49.1221 34.3244C48.9461 34.0044 48.7781 33.7284 48.6181 33.4964L49.3981 33.1724ZM50.7661 32.6684C50.8701 32.8124 50.9821 32.9844 51.1021 33.1844C51.2301 33.3844 51.3501 33.5844 51.4621 33.7844C51.5821 33.9844 51.6781 34.1564 51.7501 34.3004L50.9701 34.6484C50.8421 34.3844 50.6861 34.1004 50.5021 33.7964C50.3261 33.4844 50.1541 33.2164 49.9861 32.9924L50.7661 32.6684Z" fill="#1E3A5F"/>
<path d="M27.9263 34.5524C28.1583 34.5444 28.3703 34.5364 28.5623 34.5284C28.7623 34.5124 28.9223 34.5004 29.0423 34.4924C29.2583 34.4684 29.5463 34.4404 29.9063 34.4084C30.2743 34.3684 30.6903 34.3284 31.1543 34.2884C31.6183 34.2484 32.1143 34.2044 32.6423 34.1564C33.1703 34.1084 33.7103 34.0604 34.2623 34.0124C34.6863 33.9804 35.0983 33.9524 35.4983 33.9284C35.9063 33.8964 36.2863 33.8724 36.6383 33.8564C36.9903 33.8324 37.3023 33.8164 37.5743 33.8084V35.0204C37.3503 35.0124 37.0943 35.0124 36.8063 35.0204C36.5263 35.0284 36.2463 35.0444 35.9663 35.0684C35.6943 35.0924 35.4503 35.1324 35.2343 35.1884C34.8423 35.3084 34.4823 35.4964 34.1543 35.7524C33.8263 36.0084 33.5423 36.3044 33.3023 36.6404C33.0703 36.9764 32.8903 37.3324 32.7623 37.7084C32.6423 38.0844 32.5823 38.4484 32.5823 38.8004C32.5823 39.2404 32.6543 39.6244 32.7983 39.9524C32.9503 40.2724 33.1583 40.5484 33.4223 40.7804C33.6863 41.0044 33.9903 41.1924 34.3343 41.3444C34.6783 41.4884 35.0423 41.5964 35.4263 41.6684C35.8183 41.7404 36.2103 41.7844 36.6023 41.8004L36.1703 43.0844C35.6983 43.0604 35.2303 42.9884 34.7663 42.8684C34.3023 42.7564 33.8663 42.5964 33.4583 42.3884C33.0503 42.1724 32.6863 41.9044 32.3663 41.5844C32.0543 41.2644 31.8063 40.8964 31.6223 40.4804C31.4463 40.0644 31.3583 39.5924 31.3583 39.0644C31.3583 38.4564 31.4583 37.8964 31.6583 37.3844C31.8663 36.8724 32.1263 36.4284 32.4383 36.0524C32.7503 35.6684 33.0703 35.3724 33.3983 35.1644C33.1583 35.1884 32.8623 35.2204 32.5103 35.2604C32.1583 35.2924 31.7783 35.3324 31.3703 35.3804C30.9703 35.4284 30.5663 35.4804 30.1583 35.5364C29.7503 35.5844 29.3623 35.6364 28.9943 35.6924C28.6343 35.7484 28.3183 35.8044 28.0463 35.8604L27.9263 34.5524ZM35.8463 36.3524C35.9423 36.4884 36.0503 36.6564 36.1703 36.8564C36.2903 37.0484 36.4103 37.2484 36.5303 37.4564C36.6503 37.6564 36.7503 37.8404 36.8303 38.0084L36.0863 38.3444C35.9423 38.0404 35.7903 37.7484 35.6303 37.4684C35.4783 37.1884 35.3103 36.9204 35.1263 36.6644L35.8463 36.3524ZM37.1783 35.8364C37.2743 35.9724 37.3863 36.1364 37.5143 36.3284C37.6423 36.5124 37.7663 36.7044 37.8863 36.9044C38.0063 37.1044 38.1103 37.2924 38.1983 37.4684L37.4663 37.8164C37.3063 37.5124 37.1463 37.2284 36.9863 36.9644C36.8263 36.6924 36.6503 36.4244 36.4583 36.1604L37.1783 35.8364Z" fill="#1E3A5F"/>
<path d="M23.4873 42.5924V33.7484H24.8793V42.5924H23.4873Z" fill="#1E3A5F"/>
<path d="M13.8584 42.5924L16.7864 33.7484H18.3944L21.3224 42.5924H19.8464L18.4184 37.7924C18.2744 37.3124 18.1344 36.8284 17.9984 36.3404C17.8624 35.8444 17.7264 35.3484 17.5904 34.8524H17.5424C17.4144 35.3564 17.2784 35.8524 17.1344 36.3404C16.9984 36.8284 16.8584 37.3124 16.7144 37.7924L15.2864 42.5924H13.8584ZM15.5144 40.0844V38.9804H19.6424V40.0844H15.5144Z" fill="#1E3A5F"/>
<path d="M109.142 18.6284H116.33V19.6124H109.142V18.6284ZM109.442 27.0284H116.402V28.0244H109.442V27.0284ZM112.43 17.4644L113.57 17.5244C113.538 17.9004 113.498 18.3004 113.45 18.7244C113.41 19.1404 113.366 19.5404 113.318 19.9244C113.27 20.3084 113.218 20.6484 113.162 20.9444H112.106C112.154 20.6404 112.198 20.2884 112.238 19.8884C112.278 19.4884 112.314 19.0804 112.346 18.6644C112.386 18.2404 112.414 17.8404 112.43 17.4644ZM111.962 22.9364V23.7644H114.638V22.9364H111.962ZM111.962 24.5564V25.3964H114.638V24.5564H111.962ZM111.962 21.3164V22.1444H114.638V21.3164H111.962ZM110.906 20.4884H115.73V26.2244H110.906V20.4884ZM108.926 21.1364H109.994V28.5884H108.926V21.1364ZM107.882 17.5124L108.962 17.8364C108.698 18.5164 108.39 19.1924 108.038 19.8644C107.686 20.5364 107.306 21.1684 106.898 21.7604C106.49 22.3524 106.07 22.8764 105.638 23.3324C105.598 23.2364 105.542 23.1164 105.47 22.9724C105.398 22.8284 105.318 22.6804 105.23 22.5284C105.15 22.3764 105.078 22.2604 105.014 22.1804C105.398 21.7964 105.766 21.3564 106.118 20.8604C106.478 20.3564 106.81 19.8204 107.114 19.2524C107.418 18.6764 107.674 18.0964 107.882 17.5124ZM106.682 20.6924L107.75 19.6244L107.762 19.6364V28.5884H106.682V20.6924Z" fill="#1E3A5F"/>
<path d="M95.6263 18.6644H103.294V19.6844H95.6263V18.6644ZM95.7703 21.4484H103.21V28.3124H102.106V22.4444H96.8263V28.3724H95.7703V21.4484ZM97.8103 18.8084H98.8783V22.1804H97.8103V18.8084ZM100.006 18.7964H101.074V22.1804H100.006V18.7964ZM96.2503 26.6444H102.91V27.6284H96.2503V26.6444ZM97.9063 22.1684H98.8663V27.4004H97.9063V22.1684ZM100.006 22.1564H100.966V27.4004H100.006V22.1564ZM94.7743 17.4884L95.8063 17.8124C95.5663 18.4764 95.2783 19.1364 94.9423 19.7924C94.6063 20.4404 94.2423 21.0564 93.8503 21.6404C93.4663 22.2164 93.0663 22.7244 92.6503 23.1644C92.6183 23.0764 92.5663 22.9644 92.4943 22.8284C92.4223 22.6844 92.3463 22.5404 92.2663 22.3964C92.1863 22.2524 92.1143 22.1364 92.0503 22.0484C92.4183 21.6804 92.7703 21.2524 93.1063 20.7644C93.4423 20.2764 93.7543 19.7524 94.0423 19.1924C94.3303 18.6324 94.5743 18.0644 94.7743 17.4884ZM93.6103 20.7044L94.6663 19.6484L94.6783 19.6604V28.6004H93.6103V20.7044Z" fill="#1E3A5F"/>
<path d="M82.8665 22.3484H90.4385V23.3204H82.8665V22.3484ZM84.1985 24.0404H89.2985V24.9524H84.1985V24.0404ZM84.7265 22.7084L85.7105 22.9604C85.4065 23.6404 84.9985 24.2644 84.4865 24.8324C83.9825 25.4004 83.4465 25.8724 82.8785 26.2484C82.8305 26.1844 82.7585 26.1084 82.6625 26.0204C82.5665 25.9324 82.4705 25.8444 82.3745 25.7564C82.2785 25.6684 82.1905 25.6004 82.1105 25.5524C82.6705 25.2324 83.1825 24.8244 83.6465 24.3284C84.1105 23.8324 84.4705 23.2924 84.7265 22.7084ZM89.1065 24.0404H90.1625C90.1625 24.0404 90.1585 24.0964 90.1505 24.2084C90.1505 24.3124 90.1465 24.4004 90.1385 24.4724C90.0825 25.2724 90.0185 25.9284 89.9465 26.4404C89.8825 26.9444 89.8105 27.3324 89.7305 27.6044C89.6505 27.8844 89.5545 28.0844 89.4425 28.2044C89.3305 28.3244 89.2145 28.4084 89.0945 28.4564C88.9825 28.5044 88.8505 28.5364 88.6985 28.5524C88.5625 28.5604 88.3865 28.5644 88.1705 28.5644C87.9625 28.5724 87.7385 28.5724 87.4985 28.5644C87.4905 28.4204 87.4625 28.2604 87.4145 28.0844C87.3745 27.9084 87.3145 27.7644 87.2345 27.6524C87.4425 27.6684 87.6305 27.6764 87.7985 27.6764C87.9745 27.6844 88.1065 27.6884 88.1945 27.6884C88.2745 27.6884 88.3425 27.6804 88.3985 27.6644C88.4545 27.6484 88.5025 27.6124 88.5425 27.5564C88.6225 27.4764 88.6945 27.3204 88.7585 27.0884C88.8225 26.8484 88.8825 26.4964 88.9385 26.0324C89.0025 25.5684 89.0585 24.9604 89.1065 24.2084V24.0404ZM85.0025 20.1644V20.9564H88.5425V20.1644H85.0025ZM85.0025 18.6044V19.3964H88.5425V18.6044H85.0025ZM83.9825 17.8004H89.5865V21.7724H83.9825V17.8004ZM79.4465 20.0324H83.0585V21.1124H79.4465V20.0324ZM80.7665 17.5844H81.8345V25.0004H80.7665V17.5844ZM79.2065 25.3724C79.5105 25.2524 79.8665 25.1084 80.2745 24.9404C80.6825 24.7644 81.1145 24.5764 81.5705 24.3764C82.0265 24.1684 82.4825 23.9644 82.9385 23.7644L83.1905 24.7484C82.5825 25.0524 81.9665 25.3604 81.3425 25.6724C80.7185 25.9844 80.1505 26.2644 79.6385 26.5124L79.2065 25.3724ZM87.6425 24.2324L88.4225 24.6524C88.2705 25.1484 88.0625 25.6524 87.7985 26.1644C87.5425 26.6684 87.2505 27.1404 86.9225 27.5804C86.5945 28.0124 86.2465 28.3684 85.8785 28.6484C85.7825 28.5444 85.6585 28.4324 85.5065 28.3124C85.3545 28.1924 85.2065 28.0924 85.0625 28.0124C85.4385 27.7644 85.7945 27.4364 86.1305 27.0284C86.4745 26.6204 86.7745 26.1724 87.0305 25.6844C87.2945 25.1964 87.4985 24.7124 87.6425 24.2324ZM85.7945 24.2444L86.5505 24.6884C86.3425 25.1204 86.0745 25.5524 85.7465 25.9844C85.4265 26.4164 85.0705 26.8204 84.6785 27.1964C84.2945 27.5644 83.9105 27.8724 83.5265 28.1204C83.4385 28.0084 83.3225 27.8884 83.1785 27.7604C83.0425 27.6324 82.9065 27.5244 82.7705 27.4364C83.1705 27.2284 83.5625 26.9524 83.9465 26.6084C84.3385 26.2644 84.6945 25.8884 85.0145 25.4804C85.3345 25.0644 85.5945 24.6524 85.7945 24.2444Z" fill="#1E3A5F"/>
<path d="M71.2224 17.4044H72.4344V19.7444H71.2224V17.4044ZM71.2344 20.0924H72.4104V28.6244H71.2344V20.0924ZM66.4224 19.0604H77.3184V20.1644H66.4224V19.0604ZM67.6224 21.6404H75.5064V22.7444H68.7624V27.1364H67.6224V21.6404ZM75.0744 21.6404H76.2504V25.8044C76.2504 26.1004 76.2104 26.3364 76.1304 26.5124C76.0584 26.6884 75.9104 26.8244 75.6864 26.9204C75.4544 27.0004 75.1664 27.0524 74.8224 27.0764C74.4784 27.1004 74.0544 27.1124 73.5504 27.1124C73.5344 26.9364 73.4864 26.7444 73.4064 26.5364C73.3264 26.3284 73.2464 26.1444 73.1664 25.9844C73.4064 25.9924 73.6384 26.0004 73.8624 26.0084C74.0944 26.0164 74.2944 26.0204 74.4624 26.0204C74.6304 26.0124 74.7464 26.0084 74.8104 26.0084C74.9144 26.0084 74.9824 25.9924 75.0144 25.9604C75.0544 25.9284 75.0744 25.8724 75.0744 25.7924V21.6404Z" fill="#1E3A5F"/>
<path d="M59.7702 19.3844C59.6902 20.0004 59.5862 20.6524 59.4582 21.3404C59.3382 22.0204 59.1742 22.6964 58.9662 23.3684C58.7262 24.1844 58.4542 24.8764 58.1502 25.4444C57.8542 26.0044 57.5302 26.4324 57.1782 26.7284C56.8262 27.0244 56.4542 27.1724 56.0622 27.1724C55.6622 27.1724 55.2902 27.0364 54.9462 26.7644C54.6022 26.4844 54.3222 26.0964 54.1062 25.6004C53.8902 25.0964 53.7822 24.5124 53.7822 23.8484C53.7822 23.1764 53.9182 22.5404 54.1902 21.9404C54.4702 21.3404 54.8542 20.8084 55.3422 20.3444C55.8302 19.8804 56.3982 19.5164 57.0462 19.2524C57.6942 18.9884 58.3942 18.8564 59.1462 18.8564C59.8662 18.8564 60.5142 18.9724 61.0902 19.2044C61.6742 19.4364 62.1702 19.7604 62.5782 20.1764C62.9942 20.5844 63.3102 21.0644 63.5262 21.6164C63.7422 22.1684 63.8502 22.7564 63.8502 23.3804C63.8502 24.2204 63.6742 24.9684 63.3222 25.6244C62.9782 26.2724 62.4702 26.8044 61.7982 27.2204C61.1262 27.6284 60.3022 27.9044 59.3262 28.0484L58.6182 26.9204C58.8262 26.8964 59.0182 26.8724 59.1942 26.8484C59.3702 26.8164 59.5342 26.7844 59.6862 26.7524C60.0702 26.6644 60.4342 26.5284 60.7782 26.3444C61.1302 26.1604 61.4422 25.9284 61.7142 25.6484C61.9862 25.3604 62.1982 25.0244 62.3502 24.6404C62.5102 24.2564 62.5902 23.8244 62.5902 23.3444C62.5902 22.8644 62.5142 22.4204 62.3622 22.0124C62.2102 21.5964 61.9862 21.2364 61.6902 20.9324C61.3942 20.6284 61.0302 20.3924 60.5982 20.2244C60.1662 20.0484 59.6782 19.9604 59.1342 19.9604C58.4782 19.9604 57.8942 20.0764 57.3822 20.3084C56.8702 20.5404 56.4342 20.8484 56.0742 21.2324C55.7222 21.6084 55.4542 22.0164 55.2702 22.4564C55.0862 22.8964 54.9942 23.3204 54.9942 23.7284C54.9942 24.1844 55.0502 24.5644 55.1622 24.8684C55.2742 25.1644 55.4142 25.3844 55.5822 25.5284C55.7502 25.6724 55.9222 25.7444 56.0982 25.7444C56.2742 25.7444 56.4542 25.6564 56.6382 25.4804C56.8222 25.2964 57.0062 25.0084 57.1902 24.6164C57.3822 24.2244 57.5702 23.7244 57.7542 23.1164C57.9382 22.5404 58.0902 21.9284 58.2102 21.2804C58.3382 20.6244 58.4302 19.9844 58.4862 19.3604L59.7702 19.3844Z" fill="#1E3A5F"/>
<path d="M45.3302 18.0884C45.2902 18.2324 45.2462 18.4124 45.1982 18.6284C45.1582 18.8364 45.1262 19.0004 45.1022 19.1204C45.0462 19.4004 44.9782 19.7364 44.8982 20.1284C44.8262 20.5124 44.7382 20.9164 44.6342 21.3404C44.5382 21.7644 44.4382 22.1764 44.3342 22.5764C44.2302 23.0004 44.1022 23.4604 43.9502 23.9564C43.7982 24.4524 43.6342 24.9564 43.4582 25.4684C43.2902 25.9724 43.1182 26.4524 42.9422 26.9084C42.7742 27.3564 42.6062 27.7524 42.4382 28.0964L41.1302 27.6524C41.3062 27.3484 41.4902 26.9804 41.6822 26.5484C41.8742 26.1084 42.0622 25.6404 42.2462 25.1444C42.4302 24.6404 42.6022 24.1404 42.7622 23.6444C42.9222 23.1484 43.0582 22.6924 43.1702 22.2764C43.2422 21.9964 43.3142 21.7044 43.3862 21.4004C43.4582 21.0884 43.5262 20.7884 43.5902 20.5004C43.6542 20.2124 43.7062 19.9444 43.7462 19.6964C43.7862 19.4404 43.8182 19.2284 43.8422 19.0604C43.8742 18.8684 43.8902 18.6724 43.8902 18.4724C43.8982 18.2724 43.8982 18.1084 43.8902 17.9804L45.3302 18.0884ZM42.4982 20.0084C42.9622 20.0084 43.4542 19.9844 43.9742 19.9364C44.4942 19.8884 45.0222 19.8204 45.5582 19.7324C46.1022 19.6444 46.6262 19.5364 47.1302 19.4084V20.5964C46.6342 20.7084 46.1102 20.8044 45.5582 20.8844C45.0062 20.9644 44.4662 21.0284 43.9382 21.0764C43.4102 21.1164 42.9262 21.1364 42.4862 21.1364C42.2142 21.1364 41.9622 21.1324 41.7302 21.1244C41.5062 21.1164 41.2822 21.1044 41.0582 21.0884L41.0342 19.9124C41.3302 19.9444 41.5902 19.9684 41.8142 19.9844C42.0462 20.0004 42.2742 20.0084 42.4982 20.0084ZM46.2782 21.7364C46.6062 21.7044 46.9662 21.6804 47.3582 21.6644C47.7502 21.6404 48.1382 21.6284 48.5222 21.6284C48.8742 21.6284 49.2262 21.6364 49.5782 21.6524C49.9382 21.6604 50.2862 21.6844 50.6222 21.7244L50.5862 22.8764C50.2822 22.8364 49.9542 22.8004 49.6022 22.7684C49.2582 22.7364 48.9062 22.7204 48.5462 22.7204C48.1542 22.7204 47.7702 22.7324 47.3942 22.7564C47.0262 22.7724 46.6542 22.8044 46.2782 22.8524V21.7364ZM46.6982 24.7004C46.6582 24.8844 46.6222 25.0684 46.5902 25.2524C46.5582 25.4284 46.5422 25.5924 46.5422 25.7444C46.5422 25.8804 46.5662 26.0124 46.6142 26.1404C46.6702 26.2604 46.7622 26.3684 46.8902 26.4644C47.0262 26.5604 47.2142 26.6364 47.4542 26.6924C47.7022 26.7484 48.0182 26.7764 48.4022 26.7764C48.7942 26.7764 49.1942 26.7564 49.6022 26.7164C50.0102 26.6684 50.4102 26.6084 50.8022 26.5364L50.7662 27.7484C50.4302 27.7884 50.0622 27.8244 49.6622 27.8564C49.2702 27.8964 48.8462 27.9164 48.3902 27.9164C47.4142 27.9164 46.6662 27.7604 46.1462 27.4484C45.6342 27.1364 45.3782 26.6844 45.3782 26.0924C45.3782 25.8364 45.3982 25.5844 45.4382 25.3364C45.4782 25.0804 45.5262 24.8324 45.5822 24.5924L46.6982 24.7004Z" fill="#1E3A5F"/>
<path d="M27.9506 19.9004C28.1906 19.9244 28.4426 19.9444 28.7066 19.9604C28.9786 19.9684 29.2346 19.9724 29.4746 19.9724C29.9386 19.9724 30.4106 19.9524 30.8906 19.9124C31.3786 19.8644 31.8586 19.7964 32.3306 19.7084C32.8106 19.6124 33.2666 19.4964 33.6986 19.3604L33.7346 20.4644C33.3666 20.5684 32.9466 20.6644 32.4746 20.7524C32.0026 20.8404 31.5106 20.9124 30.9986 20.9684C30.4866 21.0244 29.9786 21.0524 29.4746 21.0524C29.2506 21.0524 29.0146 21.0484 28.7666 21.0404C28.5186 21.0324 28.2746 21.0244 28.0346 21.0164L27.9506 19.9004ZM32.3786 18.0044C32.3306 18.2044 32.2666 18.4564 32.1866 18.7604C32.1146 19.0644 32.0306 19.3844 31.9346 19.7204C31.8466 20.0564 31.7546 20.3804 31.6586 20.6924C31.4666 21.2684 31.2266 21.8804 30.9386 22.5284C30.6506 23.1684 30.3386 23.7924 30.0026 24.4004C29.6666 25.0084 29.3266 25.5404 28.9826 25.9964L27.8306 25.4084C28.1026 25.0804 28.3706 24.7164 28.6346 24.3164C28.8986 23.9084 29.1466 23.4884 29.3786 23.0564C29.6186 22.6164 29.8346 22.1924 30.0266 21.7844C30.2186 21.3684 30.3746 20.9884 30.4946 20.6444C30.6306 20.2444 30.7546 19.7924 30.8666 19.2884C30.9786 18.7844 31.0426 18.3124 31.0586 17.8724L32.3786 18.0044ZM35.1986 21.7244C35.1906 21.9724 35.1866 22.2084 35.1866 22.4324C35.1866 22.6564 35.1906 22.8884 35.1986 23.1284C35.2066 23.3124 35.2146 23.5524 35.2226 23.8484C35.2386 24.1364 35.2546 24.4444 35.2706 24.7724C35.2866 25.1004 35.2986 25.4124 35.3066 25.7084C35.3226 26.0044 35.3306 26.2444 35.3306 26.4284C35.3306 26.7644 35.2546 27.0724 35.1026 27.3524C34.9586 27.6324 34.7266 27.8564 34.4066 28.0244C34.0866 28.1924 33.6626 28.2764 33.1346 28.2764C32.6706 28.2764 32.2466 28.2084 31.8626 28.0724C31.4866 27.9364 31.1826 27.7324 30.9506 27.4604C30.7266 27.1884 30.6146 26.8444 30.6146 26.4284C30.6146 26.0524 30.7186 25.7204 30.9266 25.4324C31.1426 25.1444 31.4386 24.9204 31.8146 24.7604C32.1906 24.5924 32.6266 24.5084 33.1226 24.5084C33.8106 24.5084 34.4426 24.6084 35.0186 24.8084C35.5946 25.0004 36.1106 25.2444 36.5666 25.5404C37.0306 25.8284 37.4306 26.1204 37.7666 26.4164L37.1306 27.4364C36.8986 27.2284 36.6426 27.0124 36.3626 26.7884C36.0826 26.5564 35.7706 26.3444 35.4266 26.1524C35.0906 25.9524 34.7226 25.7884 34.3226 25.6604C33.9306 25.5324 33.5106 25.4684 33.0626 25.4684C32.6626 25.4684 32.3386 25.5484 32.0906 25.7084C31.8506 25.8684 31.7306 26.0724 31.7306 26.3204C31.7306 26.5764 31.8346 26.7844 32.0426 26.9444C32.2586 27.1044 32.5706 27.1844 32.9786 27.1844C33.2826 27.1844 33.5226 27.1364 33.6986 27.0404C33.8826 26.9364 34.0106 26.7964 34.0826 26.6204C34.1546 26.4444 34.1906 26.2484 34.1906 26.0324C34.1906 25.8244 34.1826 25.5444 34.1666 25.1924C34.1586 24.8404 34.1426 24.4604 34.1186 24.0524C34.1026 23.6444 34.0826 23.2364 34.0586 22.8284C34.0426 22.4124 34.0306 22.0444 34.0226 21.7244H35.1986ZM37.4546 22.1804C37.2306 21.9964 36.9506 21.8004 36.6146 21.5924C36.2786 21.3764 35.9346 21.1724 35.5826 20.9804C35.2306 20.7804 34.9186 20.6204 34.6466 20.5004L35.2586 19.5764C35.4746 19.6724 35.7186 19.7884 35.9906 19.9244C36.2626 20.0604 36.5346 20.2044 36.8066 20.3564C37.0786 20.5084 37.3306 20.6604 37.5626 20.8124C37.7946 20.9564 37.9866 21.0804 38.1386 21.1844L37.4546 22.1804Z" fill="#1E3A5F"/>
<path d="M19.6423 18.0284C19.6183 18.1164 19.5903 18.2124 19.5583 18.3164C19.5343 18.4204 19.5143 18.5164 19.4983 18.6044C19.4263 18.9564 19.3583 19.3804 19.2943 19.8764C19.2303 20.3644 19.1783 20.8844 19.1383 21.4364C19.0983 21.9884 19.0783 22.5284 19.0783 23.0564C19.0783 23.6244 19.1103 24.1604 19.1743 24.6644C19.2463 25.1684 19.3383 25.6404 19.4503 26.0804C19.5623 26.5204 19.6823 26.9364 19.8103 27.3284L18.7183 27.6524C18.5983 27.2924 18.4823 26.8724 18.3703 26.3924C18.2663 25.9044 18.1823 25.3884 18.1183 24.8444C18.0543 24.3004 18.0223 23.7564 18.0223 23.2124C18.0223 22.8124 18.0343 22.4004 18.0583 21.9764C18.0823 21.5524 18.1103 21.1404 18.1423 20.7404C18.1823 20.3324 18.2223 19.9484 18.2623 19.5884C18.3103 19.2284 18.3463 18.9084 18.3703 18.6284C18.3863 18.5244 18.3943 18.4124 18.3943 18.2924C18.4023 18.1724 18.4063 18.0724 18.4063 17.9924L19.6423 18.0284ZM17.6263 19.4324C18.3543 19.4324 19.0583 19.4164 19.7383 19.3844C20.4183 19.3444 21.0703 19.2844 21.6943 19.2044C22.3263 19.1244 22.9303 19.0164 23.5063 18.8804L23.5183 19.9964C23.0943 20.0684 22.6343 20.1364 22.1383 20.2004C21.6423 20.2564 21.1303 20.3044 20.6023 20.3444C20.0743 20.3844 19.5503 20.4164 19.0303 20.4404C18.5183 20.4644 18.0383 20.4764 17.5903 20.4764C17.4063 20.4764 17.1903 20.4724 16.9423 20.4644C16.6943 20.4484 16.4463 20.4364 16.1983 20.4284C15.9583 20.4124 15.7503 20.4004 15.5743 20.3924L15.5383 19.2764C15.6823 19.3004 15.8783 19.3244 16.1263 19.3484C16.3823 19.3724 16.6463 19.3924 16.9183 19.4084C17.1903 19.4244 17.4263 19.4324 17.6263 19.4324ZM22.7023 20.9924C22.6783 21.0564 22.6463 21.1404 22.6063 21.2444C22.5743 21.3484 22.5383 21.4524 22.4983 21.5564C22.4663 21.6604 22.4343 21.7484 22.4023 21.8204C22.1703 22.5564 21.8863 23.2284 21.5503 23.8364C21.2223 24.4364 20.8623 24.9684 20.4703 25.4324C20.0863 25.8884 19.6903 26.2684 19.2823 26.5724C18.8983 26.8684 18.4663 27.1204 17.9863 27.3284C17.5143 27.5364 17.0463 27.6404 16.5823 27.6404C16.3103 27.6404 16.0583 27.5844 15.8263 27.4724C15.5943 27.3604 15.4103 27.1844 15.2743 26.9444C15.1383 26.7044 15.0703 26.4004 15.0703 26.0324C15.0703 25.6164 15.1583 25.2044 15.3343 24.7964C15.5103 24.3884 15.7503 24.0004 16.0543 23.6324C16.3663 23.2644 16.7263 22.9364 17.1343 22.6484C17.5423 22.3604 17.9743 22.1284 18.4303 21.9524C18.8303 21.8084 19.2583 21.6924 19.7143 21.6044C20.1783 21.5164 20.6183 21.4724 21.0343 21.4724C21.7943 21.4724 22.4543 21.6084 23.0143 21.8804C23.5823 22.1444 24.0223 22.5084 24.3343 22.9724C24.6543 23.4364 24.8143 23.9604 24.8143 24.5444C24.8143 24.9764 24.7423 25.3924 24.5983 25.7924C24.4623 26.1844 24.2383 26.5484 23.9263 26.8844C23.6143 27.2124 23.2063 27.4964 22.7023 27.7364C22.2063 27.9764 21.6023 28.1524 20.8903 28.2644L20.2423 27.2684C20.9863 27.1884 21.6103 27.0164 22.1143 26.7524C22.6183 26.4884 22.9983 26.1604 23.2543 25.7684C23.5183 25.3764 23.6503 24.9524 23.6503 24.4964C23.6503 24.1204 23.5463 23.7804 23.3383 23.4764C23.1383 23.1644 22.8383 22.9124 22.4383 22.7204C22.0463 22.5284 21.5623 22.4324 20.9863 22.4324C20.4663 22.4324 19.9903 22.4964 19.5583 22.6244C19.1343 22.7444 18.7743 22.8724 18.4783 23.0084C18.0463 23.2004 17.6583 23.4564 17.3143 23.7764C16.9703 24.0884 16.6983 24.4244 16.4983 24.7844C16.2983 25.1444 16.1983 25.4884 16.1983 25.8164C16.1983 26.0404 16.2503 26.2084 16.3543 26.3204C16.4663 26.4324 16.6263 26.4884 16.8343 26.4884C17.1223 26.4884 17.4543 26.4004 17.8303 26.2244C18.2063 26.0484 18.5823 25.7884 18.9583 25.4444C19.4543 25.0044 19.9143 24.4724 20.3383 23.8484C20.7703 23.2244 21.1143 22.4564 21.3703 21.5444C21.3943 21.4724 21.4143 21.3884 21.4303 21.2924C21.4543 21.1884 21.4743 21.0844 21.4903 20.9804C21.5063 20.8684 21.5183 20.7764 21.5263 20.7044L22.7023 20.9924Z" fill="#1E3A5F"/>
<path d="M32 101L42 91H22L32 101Z" fill="#F6F6F6"/>
</svg>
